<mxfile host="app.diagrams.net" agent="Mozilla/5.0 (Macintosh; Intel Mac OS X 10_15_7) AppleWebKit/537.36 (KHTML, like Gecko) Chrome/138.0.0.0 Safari/537.36" version="28.0.7">
  <diagram name="Page-1" id="T7sjRCtMi3PtBLxXbKcV">
    <mxGraphModel dx="1351" dy="886" grid="1" gridSize="10" guides="1" tooltips="1" connect="1" arrows="1" fold="1" page="1" pageScale="1" pageWidth="850" pageHeight="1100" math="0" shadow="0">
      <root>
        <mxCell id="0" />
        <mxCell id="1" parent="0" />
        <mxCell id="F-UGYxU97noiECE80VYP-1" value="USER" style="shape=table;startSize=25;container=1;collapsible=0;childLayout=tableLayout;fixedRows=1;rowLines=1;fontStyle=1;align=center;resizeLast=1;fontFamily=Times New Roman;fontSize=13;fillColor=#e1d5e7;strokeColor=#A680B8;fontColor=#684E75;" vertex="1" parent="1">
          <mxGeometry x="596" y="20" width="244" height="301" as="geometry" />
        </mxCell>
        <mxCell id="F-UGYxU97noiECE80VYP-2" style="shape=tableRow;horizontal=0;startSize=0;swimlaneHead=0;swimlaneBody=0;fillColor=none;collapsible=0;dropTarget=0;points=[[0,0.5],[1,0.5]];portConstraint=eastwest;top=0;left=0;right=0;bottom=0;fontFamily=Times New Roman;fontSize=13;strokeColor=#A680B8;" vertex="1" parent="F-UGYxU97noiECE80VYP-1">
          <mxGeometry y="25" width="244" height="46" as="geometry" />
        </mxCell>
        <mxCell id="F-UGYxU97noiECE80VYP-3" value="int" style="shape=partialRectangle;connectable=0;fillColor=none;top=0;left=0;bottom=0;right=0;align=left;spacingLeft=2;overflow=hidden;fontSize=13;fontFamily=Times New Roman;strokeColor=#A680B8;" vertex="1" parent="F-UGYxU97noiECE80VYP-2">
          <mxGeometry width="64" height="46" as="geometry">
            <mxRectangle width="64" height="46" as="alternateBounds" />
          </mxGeometry>
        </mxCell>
        <mxCell id="F-UGYxU97noiECE80VYP-4" value="user_id" style="shape=partialRectangle;connectable=0;fillColor=none;top=0;left=0;bottom=0;right=0;align=left;spacingLeft=2;overflow=hidden;fontSize=13;fontFamily=Times New Roman;strokeColor=#A680B8;" vertex="1" parent="F-UGYxU97noiECE80VYP-2">
          <mxGeometry x="64" width="120" height="46" as="geometry">
            <mxRectangle width="120" height="46" as="alternateBounds" />
          </mxGeometry>
        </mxCell>
        <mxCell id="F-UGYxU97noiECE80VYP-5" value="PK" style="shape=partialRectangle;connectable=0;fillColor=none;top=0;left=0;bottom=0;right=0;align=left;spacingLeft=2;overflow=hidden;fontSize=13;fontFamily=Times New Roman;strokeColor=#A680B8;" vertex="1" parent="F-UGYxU97noiECE80VYP-2">
          <mxGeometry x="184" width="60" height="46" as="geometry">
            <mxRectangle width="60" height="46" as="alternateBounds" />
          </mxGeometry>
        </mxCell>
        <mxCell id="F-UGYxU97noiECE80VYP-6" style="shape=tableRow;horizontal=0;startSize=0;swimlaneHead=0;swimlaneBody=0;fillColor=#e1d5e7;collapsible=0;dropTarget=0;points=[[0,0.5],[1,0.5]];portConstraint=eastwest;top=0;left=0;right=0;bottom=0;fontFamily=Times New Roman;fontSize=13;strokeColor=#A680B8;opacity=70;" vertex="1" parent="F-UGYxU97noiECE80VYP-1">
          <mxGeometry y="71" width="244" height="46" as="geometry" />
        </mxCell>
        <mxCell id="F-UGYxU97noiECE80VYP-7" value="string" style="shape=partialRectangle;connectable=0;fillColor=none;top=0;left=0;bottom=0;right=0;align=left;spacingLeft=2;overflow=hidden;fontSize=13;fontFamily=Times New Roman;strokeColor=#A680B8;" vertex="1" parent="F-UGYxU97noiECE80VYP-6">
          <mxGeometry width="64" height="46" as="geometry">
            <mxRectangle width="64" height="46" as="alternateBounds" />
          </mxGeometry>
        </mxCell>
        <mxCell id="F-UGYxU97noiECE80VYP-8" value="username" style="shape=partialRectangle;connectable=0;fillColor=none;top=0;left=0;bottom=0;right=0;align=left;spacingLeft=2;overflow=hidden;fontSize=13;fontFamily=Times New Roman;strokeColor=#A680B8;" vertex="1" parent="F-UGYxU97noiECE80VYP-6">
          <mxGeometry x="64" width="120" height="46" as="geometry">
            <mxRectangle width="120" height="46" as="alternateBounds" />
          </mxGeometry>
        </mxCell>
        <mxCell id="F-UGYxU97noiECE80VYP-9" value="" style="shape=partialRectangle;connectable=0;fillColor=none;top=0;left=0;bottom=0;right=0;align=left;spacingLeft=2;overflow=hidden;fontSize=13;fontFamily=Times New Roman;strokeColor=#A680B8;" vertex="1" parent="F-UGYxU97noiECE80VYP-6">
          <mxGeometry x="184" width="60" height="46" as="geometry">
            <mxRectangle width="60" height="46" as="alternateBounds" />
          </mxGeometry>
        </mxCell>
        <mxCell id="F-UGYxU97noiECE80VYP-10" style="shape=tableRow;horizontal=0;startSize=0;swimlaneHead=0;swimlaneBody=0;fillColor=none;collapsible=0;dropTarget=0;points=[[0,0.5],[1,0.5]];portConstraint=eastwest;top=0;left=0;right=0;bottom=0;fontFamily=Times New Roman;fontSize=13;strokeColor=#A680B8;" vertex="1" parent="F-UGYxU97noiECE80VYP-1">
          <mxGeometry y="117" width="244" height="46" as="geometry" />
        </mxCell>
        <mxCell id="F-UGYxU97noiECE80VYP-11" value="string" style="shape=partialRectangle;connectable=0;fillColor=none;top=0;left=0;bottom=0;right=0;align=left;spacingLeft=2;overflow=hidden;fontSize=13;fontFamily=Times New Roman;strokeColor=#A680B8;" vertex="1" parent="F-UGYxU97noiECE80VYP-10">
          <mxGeometry width="64" height="46" as="geometry">
            <mxRectangle width="64" height="46" as="alternateBounds" />
          </mxGeometry>
        </mxCell>
        <mxCell id="F-UGYxU97noiECE80VYP-12" value="email" style="shape=partialRectangle;connectable=0;fillColor=none;top=0;left=0;bottom=0;right=0;align=left;spacingLeft=2;overflow=hidden;fontSize=13;fontFamily=Times New Roman;strokeColor=#A680B8;" vertex="1" parent="F-UGYxU97noiECE80VYP-10">
          <mxGeometry x="64" width="120" height="46" as="geometry">
            <mxRectangle width="120" height="46" as="alternateBounds" />
          </mxGeometry>
        </mxCell>
        <mxCell id="F-UGYxU97noiECE80VYP-13" value="" style="shape=partialRectangle;connectable=0;fillColor=none;top=0;left=0;bottom=0;right=0;align=left;spacingLeft=2;overflow=hidden;fontSize=13;fontFamily=Times New Roman;strokeColor=#A680B8;" vertex="1" parent="F-UGYxU97noiECE80VYP-10">
          <mxGeometry x="184" width="60" height="46" as="geometry">
            <mxRectangle width="60" height="46" as="alternateBounds" />
          </mxGeometry>
        </mxCell>
        <mxCell id="F-UGYxU97noiECE80VYP-14" style="shape=tableRow;horizontal=0;startSize=0;swimlaneHead=0;swimlaneBody=0;collapsible=0;dropTarget=0;points=[[0,0.5],[1,0.5]];portConstraint=eastwest;top=0;left=0;right=0;bottom=0;fontFamily=Times New Roman;fontSize=13;perimeterSpacing=7;fillColor=#e1d5e7;strokeColor=#A680B8;opacity=70;" vertex="1" parent="F-UGYxU97noiECE80VYP-1">
          <mxGeometry y="163" width="244" height="46" as="geometry" />
        </mxCell>
        <mxCell id="F-UGYxU97noiECE80VYP-15" value="string" style="shape=partialRectangle;connectable=0;fillColor=none;top=0;left=0;bottom=0;right=0;align=left;spacingLeft=2;overflow=hidden;fontSize=13;fontFamily=Times New Roman;strokeColor=#A680B8;" vertex="1" parent="F-UGYxU97noiECE80VYP-14">
          <mxGeometry width="64" height="46" as="geometry">
            <mxRectangle width="64" height="46" as="alternateBounds" />
          </mxGeometry>
        </mxCell>
        <mxCell id="F-UGYxU97noiECE80VYP-16" value="password_hash" style="shape=partialRectangle;connectable=0;top=0;left=0;bottom=0;right=0;align=left;spacingLeft=2;overflow=hidden;fontSize=13;fontFamily=Times New Roman;fillColor=none;strokeColor=#A680B8;" vertex="1" parent="F-UGYxU97noiECE80VYP-14">
          <mxGeometry x="64" width="120" height="46" as="geometry">
            <mxRectangle width="120" height="46" as="alternateBounds" />
          </mxGeometry>
        </mxCell>
        <mxCell id="F-UGYxU97noiECE80VYP-17" value="" style="shape=partialRectangle;connectable=0;fillColor=none;top=0;left=0;bottom=0;right=0;align=left;spacingLeft=2;overflow=hidden;fontSize=13;fontFamily=Times New Roman;strokeColor=#A680B8;" vertex="1" parent="F-UGYxU97noiECE80VYP-14">
          <mxGeometry x="184" width="60" height="46" as="geometry">
            <mxRectangle width="60" height="46" as="alternateBounds" />
          </mxGeometry>
        </mxCell>
        <mxCell id="F-UGYxU97noiECE80VYP-18" style="shape=tableRow;horizontal=0;startSize=0;swimlaneHead=0;swimlaneBody=0;fillColor=none;collapsible=0;dropTarget=0;points=[[0,0.5],[1,0.5]];portConstraint=eastwest;top=0;left=0;right=0;bottom=0;fontFamily=Times New Roman;fontSize=13;strokeColor=#A680B8;" vertex="1" parent="F-UGYxU97noiECE80VYP-1">
          <mxGeometry y="209" width="244" height="46" as="geometry" />
        </mxCell>
        <mxCell id="F-UGYxU97noiECE80VYP-19" value="datetime" style="shape=partialRectangle;connectable=0;fillColor=none;top=0;left=0;bottom=0;right=0;align=left;spacingLeft=2;overflow=hidden;fontSize=13;fontFamily=Times New Roman;strokeColor=#A680B8;" vertex="1" parent="F-UGYxU97noiECE80VYP-18">
          <mxGeometry width="64" height="46" as="geometry">
            <mxRectangle width="64" height="46" as="alternateBounds" />
          </mxGeometry>
        </mxCell>
        <mxCell id="F-UGYxU97noiECE80VYP-20" value="created_at" style="shape=partialRectangle;connectable=0;fillColor=none;top=0;left=0;bottom=0;right=0;align=left;spacingLeft=2;overflow=hidden;fontSize=13;fontFamily=Times New Roman;strokeColor=#A680B8;" vertex="1" parent="F-UGYxU97noiECE80VYP-18">
          <mxGeometry x="64" width="120" height="46" as="geometry">
            <mxRectangle width="120" height="46" as="alternateBounds" />
          </mxGeometry>
        </mxCell>
        <mxCell id="F-UGYxU97noiECE80VYP-21" value="" style="shape=partialRectangle;connectable=0;fillColor=none;top=0;left=0;bottom=0;right=0;align=left;spacingLeft=2;overflow=hidden;fontSize=13;fontFamily=Times New Roman;strokeColor=#A680B8;" vertex="1" parent="F-UGYxU97noiECE80VYP-18">
          <mxGeometry x="184" width="60" height="46" as="geometry">
            <mxRectangle width="60" height="46" as="alternateBounds" />
          </mxGeometry>
        </mxCell>
        <mxCell id="F-UGYxU97noiECE80VYP-22" style="shape=tableRow;horizontal=0;startSize=0;swimlaneHead=0;swimlaneBody=0;fillColor=#e1d5e7;collapsible=0;dropTarget=0;points=[[0,0.5],[1,0.5]];portConstraint=eastwest;top=0;left=0;right=0;bottom=0;fontFamily=Times New Roman;fontSize=13;strokeColor=#A680B8;opacity=70;" vertex="1" parent="F-UGYxU97noiECE80VYP-1">
          <mxGeometry y="255" width="244" height="46" as="geometry" />
        </mxCell>
        <mxCell id="F-UGYxU97noiECE80VYP-23" value="datetime" style="shape=partialRectangle;connectable=0;fillColor=none;top=0;left=0;bottom=0;right=0;align=left;spacingLeft=2;overflow=hidden;fontSize=13;fontFamily=Times New Roman;strokeColor=#A680B8;" vertex="1" parent="F-UGYxU97noiECE80VYP-22">
          <mxGeometry width="64" height="46" as="geometry">
            <mxRectangle width="64" height="46" as="alternateBounds" />
          </mxGeometry>
        </mxCell>
        <mxCell id="F-UGYxU97noiECE80VYP-24" value="updated_at" style="shape=partialRectangle;connectable=0;fillColor=none;top=0;left=0;bottom=0;right=0;align=left;spacingLeft=2;overflow=hidden;fontSize=13;fontFamily=Times New Roman;strokeColor=#A680B8;" vertex="1" parent="F-UGYxU97noiECE80VYP-22">
          <mxGeometry x="64" width="120" height="46" as="geometry">
            <mxRectangle width="120" height="46" as="alternateBounds" />
          </mxGeometry>
        </mxCell>
        <mxCell id="F-UGYxU97noiECE80VYP-25" value="" style="shape=partialRectangle;connectable=0;fillColor=none;top=0;left=0;bottom=0;right=0;align=left;spacingLeft=2;overflow=hidden;fontSize=13;fontFamily=Times New Roman;strokeColor=#A680B8;" vertex="1" parent="F-UGYxU97noiECE80VYP-22">
          <mxGeometry x="184" width="60" height="46" as="geometry">
            <mxRectangle width="60" height="46" as="alternateBounds" />
          </mxGeometry>
        </mxCell>
        <mxCell id="F-UGYxU97noiECE80VYP-26" value="DATA_DICTIONARY" style="shape=table;startSize=25;container=1;collapsible=0;childLayout=tableLayout;fixedRows=1;rowLines=1;fontStyle=1;align=center;resizeLast=1;fontFamily=Times New Roman;fontSize=13;strokeColor=#9673a6;fillColor=#e1d5e7;fontColor=#684E75;" vertex="1" parent="1">
          <mxGeometry x="70" y="520" width="249" height="599" as="geometry" />
        </mxCell>
        <mxCell id="F-UGYxU97noiECE80VYP-27" style="shape=tableRow;horizontal=0;startSize=0;swimlaneHead=0;swimlaneBody=0;fillColor=none;collapsible=0;dropTarget=0;points=[[0,0.5],[1,0.5]];portConstraint=eastwest;top=0;left=0;right=0;bottom=0;fontFamily=Times New Roman;fontSize=13;strokeColor=#A680B8;" vertex="1" parent="F-UGYxU97noiECE80VYP-26">
          <mxGeometry y="25" width="249" height="44" as="geometry" />
        </mxCell>
        <mxCell id="F-UGYxU97noiECE80VYP-28" value="int" style="shape=partialRectangle;connectable=0;fillColor=none;top=0;left=0;bottom=0;right=0;align=left;spacingLeft=2;overflow=hidden;fontSize=13;fontFamily=Times New Roman;strokeColor=#A680B8;" vertex="1" parent="F-UGYxU97noiECE80VYP-27">
          <mxGeometry width="60" height="44" as="geometry">
            <mxRectangle width="60" height="44" as="alternateBounds" />
          </mxGeometry>
        </mxCell>
        <mxCell id="F-UGYxU97noiECE80VYP-29" value="dict_id" style="shape=partialRectangle;connectable=0;fillColor=none;top=0;left=0;bottom=0;right=0;align=left;spacingLeft=2;overflow=hidden;fontSize=13;fontFamily=Times New Roman;strokeColor=#A680B8;" vertex="1" parent="F-UGYxU97noiECE80VYP-27">
          <mxGeometry x="60" width="129.99999999999977" height="44" as="geometry">
            <mxRectangle width="129.99999999999977" height="44" as="alternateBounds" />
          </mxGeometry>
        </mxCell>
        <mxCell id="F-UGYxU97noiECE80VYP-30" value="PK" style="shape=partialRectangle;connectable=0;fillColor=none;top=0;left=0;bottom=0;right=0;align=left;spacingLeft=2;overflow=hidden;fontSize=13;fontFamily=Times New Roman;strokeColor=#A680B8;" vertex="1" parent="F-UGYxU97noiECE80VYP-27">
          <mxGeometry x="189.99999999999977" width="59.00000000000023" height="44" as="geometry">
            <mxRectangle width="59.00000000000023" height="44" as="alternateBounds" />
          </mxGeometry>
        </mxCell>
        <mxCell id="F-UGYxU97noiECE80VYP-31" style="shape=tableRow;horizontal=0;startSize=0;swimlaneHead=0;swimlaneBody=0;fillColor=none;collapsible=0;dropTarget=0;points=[[0,0.5],[1,0.5]];portConstraint=eastwest;top=0;left=0;right=0;bottom=0;fontFamily=Times New Roman;fontSize=13;strokeColor=#A680B8;opacity=70;" vertex="1" parent="F-UGYxU97noiECE80VYP-26">
          <mxGeometry y="69" width="249" height="44" as="geometry" />
        </mxCell>
        <mxCell id="F-UGYxU97noiECE80VYP-32" value="string" style="shape=partialRectangle;connectable=0;fillColor=#e1d5e7;top=0;left=0;bottom=0;right=0;align=left;spacingLeft=2;overflow=hidden;fontSize=13;fontFamily=Times New Roman;strokeColor=#9673a6;opacity=70;" vertex="1" parent="F-UGYxU97noiECE80VYP-31">
          <mxGeometry width="60" height="44" as="geometry">
            <mxRectangle width="60" height="44" as="alternateBounds" />
          </mxGeometry>
        </mxCell>
        <mxCell id="F-UGYxU97noiECE80VYP-33" value="name" style="shape=partialRectangle;connectable=0;fillColor=#e1d5e7;top=0;left=0;bottom=0;right=0;align=left;spacingLeft=2;overflow=hidden;fontSize=13;fontFamily=Times New Roman;strokeColor=#9673a6;opacity=70;" vertex="1" parent="F-UGYxU97noiECE80VYP-31">
          <mxGeometry x="60" width="129.99999999999977" height="44" as="geometry">
            <mxRectangle width="129.99999999999977" height="44" as="alternateBounds" />
          </mxGeometry>
        </mxCell>
        <mxCell id="F-UGYxU97noiECE80VYP-34" value="" style="shape=partialRectangle;connectable=0;fillColor=#e1d5e7;top=0;left=0;bottom=0;right=0;align=left;spacingLeft=2;overflow=hidden;fontSize=13;fontFamily=Times New Roman;strokeColor=#9673a6;opacity=70;" vertex="1" parent="F-UGYxU97noiECE80VYP-31">
          <mxGeometry x="189.99999999999977" width="59.00000000000023" height="44" as="geometry">
            <mxRectangle width="59.00000000000023" height="44" as="alternateBounds" />
          </mxGeometry>
        </mxCell>
        <mxCell id="F-UGYxU97noiECE80VYP-35" style="shape=tableRow;horizontal=0;startSize=0;swimlaneHead=0;swimlaneBody=0;fillColor=none;collapsible=0;dropTarget=0;points=[[0,0.5],[1,0.5]];portConstraint=eastwest;top=0;left=0;right=0;bottom=0;fontFamily=Times New Roman;fontSize=13;strokeColor=#A680B8;" vertex="1" parent="F-UGYxU97noiECE80VYP-26">
          <mxGeometry y="113" width="249" height="44" as="geometry" />
        </mxCell>
        <mxCell id="F-UGYxU97noiECE80VYP-36" value="string" style="shape=partialRectangle;connectable=0;fillColor=none;top=0;left=0;bottom=0;right=0;align=left;spacingLeft=2;overflow=hidden;fontSize=13;fontFamily=Times New Roman;strokeColor=#A680B8;" vertex="1" parent="F-UGYxU97noiECE80VYP-35">
          <mxGeometry width="60" height="44" as="geometry">
            <mxRectangle width="60" height="44" as="alternateBounds" />
          </mxGeometry>
        </mxCell>
        <mxCell id="F-UGYxU97noiECE80VYP-37" value="abbreviation" style="shape=partialRectangle;connectable=0;fillColor=none;top=0;left=0;bottom=0;right=0;align=left;spacingLeft=2;overflow=hidden;fontSize=13;fontFamily=Times New Roman;strokeColor=#A680B8;" vertex="1" parent="F-UGYxU97noiECE80VYP-35">
          <mxGeometry x="60" width="129.99999999999977" height="44" as="geometry">
            <mxRectangle width="129.99999999999977" height="44" as="alternateBounds" />
          </mxGeometry>
        </mxCell>
        <mxCell id="F-UGYxU97noiECE80VYP-38" value="" style="shape=partialRectangle;connectable=0;fillColor=none;top=0;left=0;bottom=0;right=0;align=left;spacingLeft=2;overflow=hidden;fontSize=13;fontFamily=Times New Roman;strokeColor=#A680B8;" vertex="1" parent="F-UGYxU97noiECE80VYP-35">
          <mxGeometry x="189.99999999999977" width="59.00000000000023" height="44" as="geometry">
            <mxRectangle width="59.00000000000023" height="44" as="alternateBounds" />
          </mxGeometry>
        </mxCell>
        <mxCell id="F-UGYxU97noiECE80VYP-39" style="shape=tableRow;horizontal=0;startSize=0;swimlaneHead=0;swimlaneBody=0;fillColor=#e1d5e7;collapsible=0;dropTarget=0;points=[[0,0.5],[1,0.5]];portConstraint=eastwest;top=0;left=0;right=0;bottom=0;fontFamily=Times New Roman;fontSize=13;strokeColor=#9673a6;opacity=70;" vertex="1" parent="F-UGYxU97noiECE80VYP-26">
          <mxGeometry y="157" width="249" height="44" as="geometry" />
        </mxCell>
        <mxCell id="F-UGYxU97noiECE80VYP-40" value="string" style="shape=partialRectangle;connectable=0;fillColor=none;top=0;left=0;bottom=0;right=0;align=left;spacingLeft=2;overflow=hidden;fontSize=13;fontFamily=Times New Roman;strokeColor=#A680B8;" vertex="1" parent="F-UGYxU97noiECE80VYP-39">
          <mxGeometry width="60" height="44" as="geometry">
            <mxRectangle width="60" height="44" as="alternateBounds" />
          </mxGeometry>
        </mxCell>
        <mxCell id="F-UGYxU97noiECE80VYP-41" value="full_name" style="shape=partialRectangle;connectable=0;fillColor=none;top=0;left=0;bottom=0;right=0;align=left;spacingLeft=2;overflow=hidden;fontSize=13;fontFamily=Times New Roman;strokeColor=#A680B8;" vertex="1" parent="F-UGYxU97noiECE80VYP-39">
          <mxGeometry x="60" width="129.99999999999977" height="44" as="geometry">
            <mxRectangle width="129.99999999999977" height="44" as="alternateBounds" />
          </mxGeometry>
        </mxCell>
        <mxCell id="F-UGYxU97noiECE80VYP-42" value="" style="shape=partialRectangle;connectable=0;fillColor=none;top=0;left=0;bottom=0;right=0;align=left;spacingLeft=2;overflow=hidden;fontSize=13;fontFamily=Times New Roman;strokeColor=#A680B8;" vertex="1" parent="F-UGYxU97noiECE80VYP-39">
          <mxGeometry x="189.99999999999977" width="59.00000000000023" height="44" as="geometry">
            <mxRectangle width="59.00000000000023" height="44" as="alternateBounds" />
          </mxGeometry>
        </mxCell>
        <mxCell id="F-UGYxU97noiECE80VYP-43" style="shape=tableRow;horizontal=0;startSize=0;swimlaneHead=0;swimlaneBody=0;fillColor=none;collapsible=0;dropTarget=0;points=[[0,0.5],[1,0.5]];portConstraint=eastwest;top=0;left=0;right=0;bottom=0;fontFamily=Times New Roman;fontSize=13;strokeColor=#A680B8;" vertex="1" parent="F-UGYxU97noiECE80VYP-26">
          <mxGeometry y="201" width="249" height="44" as="geometry" />
        </mxCell>
        <mxCell id="F-UGYxU97noiECE80VYP-44" value="string" style="shape=partialRectangle;connectable=0;fillColor=none;top=0;left=0;bottom=0;right=0;align=left;spacingLeft=2;overflow=hidden;fontSize=13;fontFamily=Times New Roman;strokeColor=#A680B8;" vertex="1" parent="F-UGYxU97noiECE80VYP-43">
          <mxGeometry width="60" height="44" as="geometry">
            <mxRectangle width="60" height="44" as="alternateBounds" />
          </mxGeometry>
        </mxCell>
        <mxCell id="F-UGYxU97noiECE80VYP-45" value="data_type" style="shape=partialRectangle;connectable=0;fillColor=none;top=0;left=0;bottom=0;right=0;align=left;spacingLeft=2;overflow=hidden;fontSize=13;fontFamily=Times New Roman;strokeColor=#A680B8;" vertex="1" parent="F-UGYxU97noiECE80VYP-43">
          <mxGeometry x="60" width="129.99999999999977" height="44" as="geometry">
            <mxRectangle width="129.99999999999977" height="44" as="alternateBounds" />
          </mxGeometry>
        </mxCell>
        <mxCell id="F-UGYxU97noiECE80VYP-46" value="" style="shape=partialRectangle;connectable=0;fillColor=none;top=0;left=0;bottom=0;right=0;align=left;spacingLeft=2;overflow=hidden;fontSize=13;fontFamily=Times New Roman;strokeColor=#A680B8;" vertex="1" parent="F-UGYxU97noiECE80VYP-43">
          <mxGeometry x="189.99999999999977" width="59.00000000000023" height="44" as="geometry">
            <mxRectangle width="59.00000000000023" height="44" as="alternateBounds" />
          </mxGeometry>
        </mxCell>
        <mxCell id="F-UGYxU97noiECE80VYP-47" style="shape=tableRow;horizontal=0;startSize=0;swimlaneHead=0;swimlaneBody=0;fillColor=#e1d5e7;collapsible=0;dropTarget=0;points=[[0,0.5],[1,0.5]];portConstraint=eastwest;top=0;left=0;right=0;bottom=0;fontFamily=Times New Roman;fontSize=13;strokeColor=#9673a6;opacity=70;" vertex="1" parent="F-UGYxU97noiECE80VYP-26">
          <mxGeometry y="245" width="249" height="44" as="geometry" />
        </mxCell>
        <mxCell id="F-UGYxU97noiECE80VYP-48" value="string" style="shape=partialRectangle;connectable=0;fillColor=none;top=0;left=0;bottom=0;right=0;align=left;spacingLeft=2;overflow=hidden;fontSize=13;fontFamily=Times New Roman;strokeColor=#A680B8;" vertex="1" parent="F-UGYxU97noiECE80VYP-47">
          <mxGeometry width="60" height="44" as="geometry">
            <mxRectangle width="60" height="44" as="alternateBounds" />
          </mxGeometry>
        </mxCell>
        <mxCell id="F-UGYxU97noiECE80VYP-49" value="description" style="shape=partialRectangle;connectable=0;fillColor=none;top=0;left=0;bottom=0;right=0;align=left;spacingLeft=2;overflow=hidden;fontSize=13;fontFamily=Times New Roman;strokeColor=#A680B8;" vertex="1" parent="F-UGYxU97noiECE80VYP-47">
          <mxGeometry x="60" width="129.99999999999977" height="44" as="geometry">
            <mxRectangle width="129.99999999999977" height="44" as="alternateBounds" />
          </mxGeometry>
        </mxCell>
        <mxCell id="F-UGYxU97noiECE80VYP-50" value="" style="shape=partialRectangle;connectable=0;fillColor=none;top=0;left=0;bottom=0;right=0;align=left;spacingLeft=2;overflow=hidden;fontSize=13;fontFamily=Times New Roman;strokeColor=#A680B8;" vertex="1" parent="F-UGYxU97noiECE80VYP-47">
          <mxGeometry x="189.99999999999977" width="59.00000000000023" height="44" as="geometry">
            <mxRectangle width="59.00000000000023" height="44" as="alternateBounds" />
          </mxGeometry>
        </mxCell>
        <mxCell id="F-UGYxU97noiECE80VYP-51" style="shape=tableRow;horizontal=0;startSize=0;swimlaneHead=0;swimlaneBody=0;fillColor=none;collapsible=0;dropTarget=0;points=[[0,0.5],[1,0.5]];portConstraint=eastwest;top=0;left=0;right=0;bottom=0;fontFamily=Times New Roman;fontSize=13;strokeColor=#A680B8;" vertex="1" parent="F-UGYxU97noiECE80VYP-26">
          <mxGeometry y="289" width="249" height="44" as="geometry" />
        </mxCell>
        <mxCell id="F-UGYxU97noiECE80VYP-52" value="boolean" style="shape=partialRectangle;connectable=0;fillColor=none;top=0;left=0;bottom=0;right=0;align=left;spacingLeft=2;overflow=hidden;fontSize=13;fontFamily=Times New Roman;strokeColor=#A680B8;" vertex="1" parent="F-UGYxU97noiECE80VYP-51">
          <mxGeometry width="60" height="44" as="geometry">
            <mxRectangle width="60" height="44" as="alternateBounds" />
          </mxGeometry>
        </mxCell>
        <mxCell id="F-UGYxU97noiECE80VYP-53" value="is_active" style="shape=partialRectangle;connectable=0;fillColor=none;top=0;left=0;bottom=0;right=0;align=left;spacingLeft=2;overflow=hidden;fontSize=13;fontFamily=Times New Roman;strokeColor=#A680B8;" vertex="1" parent="F-UGYxU97noiECE80VYP-51">
          <mxGeometry x="60" width="129.99999999999977" height="44" as="geometry">
            <mxRectangle width="129.99999999999977" height="44" as="alternateBounds" />
          </mxGeometry>
        </mxCell>
        <mxCell id="F-UGYxU97noiECE80VYP-54" value="" style="shape=partialRectangle;connectable=0;fillColor=none;top=0;left=0;bottom=0;right=0;align=left;spacingLeft=2;overflow=hidden;fontSize=13;fontFamily=Times New Roman;strokeColor=#A680B8;" vertex="1" parent="F-UGYxU97noiECE80VYP-51">
          <mxGeometry x="189.99999999999977" width="59.00000000000023" height="44" as="geometry">
            <mxRectangle width="59.00000000000023" height="44" as="alternateBounds" />
          </mxGeometry>
        </mxCell>
        <mxCell id="F-UGYxU97noiECE80VYP-55" style="shape=tableRow;horizontal=0;startSize=0;swimlaneHead=0;swimlaneBody=0;fillColor=#e1d5e7;collapsible=0;dropTarget=0;points=[[0,0.5],[1,0.5]];portConstraint=eastwest;top=0;left=0;right=0;bottom=0;fontFamily=Times New Roman;fontSize=13;strokeColor=#9673a6;opacity=70;" vertex="1" parent="F-UGYxU97noiECE80VYP-26">
          <mxGeometry y="333" width="249" height="44" as="geometry" />
        </mxCell>
        <mxCell id="F-UGYxU97noiECE80VYP-56" value="string" style="shape=partialRectangle;connectable=0;fillColor=none;top=0;left=0;bottom=0;right=0;align=left;spacingLeft=2;overflow=hidden;fontSize=13;fontFamily=Times New Roman;strokeColor=#A680B8;" vertex="1" parent="F-UGYxU97noiECE80VYP-55">
          <mxGeometry width="60" height="44" as="geometry">
            <mxRectangle width="60" height="44" as="alternateBounds" />
          </mxGeometry>
        </mxCell>
        <mxCell id="F-UGYxU97noiECE80VYP-57" value="version" style="shape=partialRectangle;connectable=0;fillColor=none;top=0;left=0;bottom=0;right=0;align=left;spacingLeft=2;overflow=hidden;fontSize=13;fontFamily=Times New Roman;strokeColor=#A680B8;" vertex="1" parent="F-UGYxU97noiECE80VYP-55">
          <mxGeometry x="60" width="129.99999999999977" height="44" as="geometry">
            <mxRectangle width="129.99999999999977" height="44" as="alternateBounds" />
          </mxGeometry>
        </mxCell>
        <mxCell id="F-UGYxU97noiECE80VYP-58" value="" style="shape=partialRectangle;connectable=0;fillColor=none;top=0;left=0;bottom=0;right=0;align=left;spacingLeft=2;overflow=hidden;fontSize=13;fontFamily=Times New Roman;strokeColor=#A680B8;" vertex="1" parent="F-UGYxU97noiECE80VYP-55">
          <mxGeometry x="189.99999999999977" width="59.00000000000023" height="44" as="geometry">
            <mxRectangle width="59.00000000000023" height="44" as="alternateBounds" />
          </mxGeometry>
        </mxCell>
        <mxCell id="F-UGYxU97noiECE80VYP-59" style="shape=tableRow;horizontal=0;startSize=0;swimlaneHead=0;swimlaneBody=0;fillColor=none;collapsible=0;dropTarget=0;points=[[0,0.5],[1,0.5]];portConstraint=eastwest;top=0;left=0;right=0;bottom=0;fontFamily=Times New Roman;fontSize=13;strokeColor=#A680B8;" vertex="1" parent="F-UGYxU97noiECE80VYP-26">
          <mxGeometry y="377" width="249" height="44" as="geometry" />
        </mxCell>
        <mxCell id="F-UGYxU97noiECE80VYP-60" value="string" style="shape=partialRectangle;connectable=0;fillColor=none;top=0;left=0;bottom=0;right=0;align=left;spacingLeft=2;overflow=hidden;fontSize=13;fontFamily=Times New Roman;strokeColor=#A680B8;" vertex="1" parent="F-UGYxU97noiECE80VYP-59">
          <mxGeometry width="60" height="44" as="geometry">
            <mxRectangle width="60" height="44" as="alternateBounds" />
          </mxGeometry>
        </mxCell>
        <mxCell id="F-UGYxU97noiECE80VYP-61" value="remarks" style="shape=partialRectangle;connectable=0;fillColor=none;top=0;left=0;bottom=0;right=0;align=left;spacingLeft=2;overflow=hidden;fontSize=13;fontFamily=Times New Roman;strokeColor=#A680B8;" vertex="1" parent="F-UGYxU97noiECE80VYP-59">
          <mxGeometry x="60" width="129.99999999999977" height="44" as="geometry">
            <mxRectangle width="129.99999999999977" height="44" as="alternateBounds" />
          </mxGeometry>
        </mxCell>
        <mxCell id="F-UGYxU97noiECE80VYP-62" value="" style="shape=partialRectangle;connectable=0;fillColor=none;top=0;left=0;bottom=0;right=0;align=left;spacingLeft=2;overflow=hidden;fontSize=13;fontFamily=Times New Roman;strokeColor=#A680B8;" vertex="1" parent="F-UGYxU97noiECE80VYP-59">
          <mxGeometry x="189.99999999999977" width="59.00000000000023" height="44" as="geometry">
            <mxRectangle width="59.00000000000023" height="44" as="alternateBounds" />
          </mxGeometry>
        </mxCell>
        <mxCell id="F-UGYxU97noiECE80VYP-63" style="shape=tableRow;horizontal=0;startSize=0;swimlaneHead=0;swimlaneBody=0;fillColor=#e1d5e7;collapsible=0;dropTarget=0;points=[[0,0.5],[1,0.5]];portConstraint=eastwest;top=0;left=0;right=0;bottom=0;fontFamily=Times New Roman;fontSize=13;strokeColor=#9673a6;opacity=70;" vertex="1" parent="F-UGYxU97noiECE80VYP-26">
          <mxGeometry y="421" width="249" height="44" as="geometry" />
        </mxCell>
        <mxCell id="F-UGYxU97noiECE80VYP-64" value="int" style="shape=partialRectangle;connectable=0;fillColor=none;top=0;left=0;bottom=0;right=0;align=left;spacingLeft=2;overflow=hidden;fontSize=13;fontFamily=Times New Roman;strokeColor=#A680B8;" vertex="1" parent="F-UGYxU97noiECE80VYP-63">
          <mxGeometry width="60" height="44" as="geometry">
            <mxRectangle width="60" height="44" as="alternateBounds" />
          </mxGeometry>
        </mxCell>
        <mxCell id="F-UGYxU97noiECE80VYP-65" value="created_by" style="shape=partialRectangle;connectable=0;fillColor=none;top=0;left=0;bottom=0;right=0;align=left;spacingLeft=2;overflow=hidden;fontSize=13;fontFamily=Times New Roman;strokeColor=#A680B8;" vertex="1" parent="F-UGYxU97noiECE80VYP-63">
          <mxGeometry x="60" width="129.99999999999977" height="44" as="geometry">
            <mxRectangle width="129.99999999999977" height="44" as="alternateBounds" />
          </mxGeometry>
        </mxCell>
        <mxCell id="F-UGYxU97noiECE80VYP-66" value="FK" style="shape=partialRectangle;connectable=0;fillColor=none;top=0;left=0;bottom=0;right=0;align=left;spacingLeft=2;overflow=hidden;fontSize=13;fontFamily=Times New Roman;strokeColor=#A680B8;" vertex="1" parent="F-UGYxU97noiECE80VYP-63">
          <mxGeometry x="189.99999999999977" width="59.00000000000023" height="44" as="geometry">
            <mxRectangle width="59.00000000000023" height="44" as="alternateBounds" />
          </mxGeometry>
        </mxCell>
        <mxCell id="F-UGYxU97noiECE80VYP-67" style="shape=tableRow;horizontal=0;startSize=0;swimlaneHead=0;swimlaneBody=0;fillColor=none;collapsible=0;dropTarget=0;points=[[0,0.5],[1,0.5]];portConstraint=eastwest;top=0;left=0;right=0;bottom=0;fontFamily=Times New Roman;fontSize=13;strokeColor=#A680B8;" vertex="1" parent="F-UGYxU97noiECE80VYP-26">
          <mxGeometry y="465" width="249" height="44" as="geometry" />
        </mxCell>
        <mxCell id="F-UGYxU97noiECE80VYP-68" value="int" style="shape=partialRectangle;connectable=0;fillColor=none;top=0;left=0;bottom=0;right=0;align=left;spacingLeft=2;overflow=hidden;fontSize=13;fontFamily=Times New Roman;strokeColor=#A680B8;" vertex="1" parent="F-UGYxU97noiECE80VYP-67">
          <mxGeometry width="60" height="44" as="geometry">
            <mxRectangle width="60" height="44" as="alternateBounds" />
          </mxGeometry>
        </mxCell>
        <mxCell id="F-UGYxU97noiECE80VYP-69" value="updated_by" style="shape=partialRectangle;connectable=0;fillColor=none;top=0;left=0;bottom=0;right=0;align=left;spacingLeft=2;overflow=hidden;fontSize=13;fontFamily=Times New Roman;strokeColor=#A680B8;" vertex="1" parent="F-UGYxU97noiECE80VYP-67">
          <mxGeometry x="60" width="129.99999999999977" height="44" as="geometry">
            <mxRectangle width="129.99999999999977" height="44" as="alternateBounds" />
          </mxGeometry>
        </mxCell>
        <mxCell id="F-UGYxU97noiECE80VYP-70" value="FK" style="shape=partialRectangle;connectable=0;fillColor=none;top=0;left=0;bottom=0;right=0;align=left;spacingLeft=2;overflow=hidden;fontSize=13;fontFamily=Times New Roman;strokeColor=#A680B8;" vertex="1" parent="F-UGYxU97noiECE80VYP-67">
          <mxGeometry x="189.99999999999977" width="59.00000000000023" height="44" as="geometry">
            <mxRectangle width="59.00000000000023" height="44" as="alternateBounds" />
          </mxGeometry>
        </mxCell>
        <mxCell id="F-UGYxU97noiECE80VYP-71" style="shape=tableRow;horizontal=0;startSize=0;swimlaneHead=0;swimlaneBody=0;fillColor=#e1d5e7;collapsible=0;dropTarget=0;points=[[0,0.5],[1,0.5]];portConstraint=eastwest;top=0;left=0;right=0;bottom=0;fontFamily=Times New Roman;fontSize=13;strokeColor=#9673a6;opacity=70;" vertex="1" parent="F-UGYxU97noiECE80VYP-26">
          <mxGeometry y="509" width="249" height="44" as="geometry" />
        </mxCell>
        <mxCell id="F-UGYxU97noiECE80VYP-72" value="datetime" style="shape=partialRectangle;connectable=0;fillColor=none;top=0;left=0;bottom=0;right=0;align=left;spacingLeft=2;overflow=hidden;fontSize=13;fontFamily=Times New Roman;strokeColor=#A680B8;" vertex="1" parent="F-UGYxU97noiECE80VYP-71">
          <mxGeometry width="60" height="44" as="geometry">
            <mxRectangle width="60" height="44" as="alternateBounds" />
          </mxGeometry>
        </mxCell>
        <mxCell id="F-UGYxU97noiECE80VYP-73" value="created_at" style="shape=partialRectangle;connectable=0;fillColor=none;top=0;left=0;bottom=0;right=0;align=left;spacingLeft=2;overflow=hidden;fontSize=13;fontFamily=Times New Roman;strokeColor=#A680B8;" vertex="1" parent="F-UGYxU97noiECE80VYP-71">
          <mxGeometry x="60" width="129.99999999999977" height="44" as="geometry">
            <mxRectangle width="129.99999999999977" height="44" as="alternateBounds" />
          </mxGeometry>
        </mxCell>
        <mxCell id="F-UGYxU97noiECE80VYP-74" value="" style="shape=partialRectangle;connectable=0;fillColor=none;top=0;left=0;bottom=0;right=0;align=left;spacingLeft=2;overflow=hidden;fontSize=13;fontFamily=Times New Roman;strokeColor=#A680B8;" vertex="1" parent="F-UGYxU97noiECE80VYP-71">
          <mxGeometry x="189.99999999999977" width="59.00000000000023" height="44" as="geometry">
            <mxRectangle width="59.00000000000023" height="44" as="alternateBounds" />
          </mxGeometry>
        </mxCell>
        <mxCell id="F-UGYxU97noiECE80VYP-75" style="shape=tableRow;horizontal=0;startSize=0;swimlaneHead=0;swimlaneBody=0;fillColor=none;collapsible=0;dropTarget=0;points=[[0,0.5],[1,0.5]];portConstraint=eastwest;top=0;left=0;right=0;bottom=0;fontFamily=Times New Roman;fontSize=13;strokeColor=#A680B8;" vertex="1" parent="F-UGYxU97noiECE80VYP-26">
          <mxGeometry y="553" width="249" height="44" as="geometry" />
        </mxCell>
        <mxCell id="F-UGYxU97noiECE80VYP-76" value="datetime" style="shape=partialRectangle;connectable=0;fillColor=none;top=0;left=0;bottom=0;right=0;align=left;spacingLeft=2;overflow=hidden;fontSize=13;fontFamily=Times New Roman;strokeColor=#A680B8;" vertex="1" parent="F-UGYxU97noiECE80VYP-75">
          <mxGeometry width="60" height="44" as="geometry">
            <mxRectangle width="60" height="44" as="alternateBounds" />
          </mxGeometry>
        </mxCell>
        <mxCell id="F-UGYxU97noiECE80VYP-77" value="updated_at" style="shape=partialRectangle;connectable=0;fillColor=none;top=0;left=0;bottom=0;right=0;align=left;spacingLeft=2;overflow=hidden;fontSize=13;fontFamily=Times New Roman;strokeColor=#A680B8;" vertex="1" parent="F-UGYxU97noiECE80VYP-75">
          <mxGeometry x="60" width="129.99999999999977" height="44" as="geometry">
            <mxRectangle width="129.99999999999977" height="44" as="alternateBounds" />
          </mxGeometry>
        </mxCell>
        <mxCell id="F-UGYxU97noiECE80VYP-78" value="" style="shape=partialRectangle;connectable=0;fillColor=none;top=0;left=0;bottom=0;right=0;align=left;spacingLeft=2;overflow=hidden;fontSize=13;fontFamily=Times New Roman;strokeColor=#A680B8;" vertex="1" parent="F-UGYxU97noiECE80VYP-75">
          <mxGeometry x="189.99999999999977" width="59.00000000000023" height="44" as="geometry">
            <mxRectangle width="59.00000000000023" height="44" as="alternateBounds" />
          </mxGeometry>
        </mxCell>
        <mxCell id="F-UGYxU97noiECE80VYP-79" value="KNOWLEDGE_BASE" style="shape=table;startSize=25;container=1;collapsible=0;childLayout=tableLayout;fixedRows=1;rowLines=1;fontStyle=1;align=center;resizeLast=1;fontFamily=Times New Roman;fontSize=13;strokeColor=#9673a6;fillColor=#e1d5e7;opacity=70;fontColor=#684E75;" vertex="1" parent="1">
          <mxGeometry x="410" y="680" width="248" height="641" as="geometry" />
        </mxCell>
        <mxCell id="F-UGYxU97noiECE80VYP-80" style="shape=tableRow;horizontal=0;startSize=0;swimlaneHead=0;swimlaneBody=0;fillColor=none;collapsible=0;dropTarget=0;points=[[0,0.5],[1,0.5]];portConstraint=eastwest;top=0;left=0;right=0;bottom=0;fontFamily=Times New Roman;fontSize=13;strokeColor=#A680B8;" vertex="1" parent="F-UGYxU97noiECE80VYP-79">
          <mxGeometry y="25" width="248" height="44" as="geometry" />
        </mxCell>
        <mxCell id="F-UGYxU97noiECE80VYP-81" value="int" style="shape=partialRectangle;connectable=0;fillColor=none;top=0;left=0;bottom=0;right=0;align=left;spacingLeft=2;overflow=hidden;fontSize=13;fontFamily=Times New Roman;strokeColor=#A680B8;" vertex="1" parent="F-UGYxU97noiECE80VYP-80">
          <mxGeometry width="60.00000000000023" height="44" as="geometry">
            <mxRectangle width="60.00000000000023" height="44" as="alternateBounds" />
          </mxGeometry>
        </mxCell>
        <mxCell id="F-UGYxU97noiECE80VYP-82" value="kb_id" style="shape=partialRectangle;connectable=0;fillColor=none;top=0;left=0;bottom=0;right=0;align=left;spacingLeft=2;overflow=hidden;fontSize=13;fontFamily=Times New Roman;strokeColor=#A680B8;" vertex="1" parent="F-UGYxU97noiECE80VYP-80">
          <mxGeometry x="60.00000000000023" width="139.99999999999977" height="44" as="geometry">
            <mxRectangle width="139.99999999999977" height="44" as="alternateBounds" />
          </mxGeometry>
        </mxCell>
        <mxCell id="F-UGYxU97noiECE80VYP-83" value="PK" style="shape=partialRectangle;connectable=0;fillColor=none;top=0;left=0;bottom=0;right=0;align=left;spacingLeft=2;overflow=hidden;fontSize=13;fontFamily=Times New Roman;strokeColor=#A680B8;" vertex="1" parent="F-UGYxU97noiECE80VYP-80">
          <mxGeometry x="200" width="48" height="44" as="geometry">
            <mxRectangle width="48" height="44" as="alternateBounds" />
          </mxGeometry>
        </mxCell>
        <mxCell id="F-UGYxU97noiECE80VYP-84" style="shape=tableRow;horizontal=0;startSize=0;swimlaneHead=0;swimlaneBody=0;fillColor=#e1d5e7;collapsible=0;dropTarget=0;points=[[0,0.5],[1,0.5]];portConstraint=eastwest;top=0;left=0;right=0;bottom=0;fontFamily=Times New Roman;fontSize=13;strokeColor=#9673a6;opacity=70;" vertex="1" parent="F-UGYxU97noiECE80VYP-79">
          <mxGeometry y="69" width="248" height="44" as="geometry" />
        </mxCell>
        <mxCell id="F-UGYxU97noiECE80VYP-85" value="string" style="shape=partialRectangle;connectable=0;fillColor=none;top=0;left=0;bottom=0;right=0;align=left;spacingLeft=2;overflow=hidden;fontSize=13;fontFamily=Times New Roman;strokeColor=#A680B8;" vertex="1" parent="F-UGYxU97noiECE80VYP-84">
          <mxGeometry width="60.00000000000023" height="44" as="geometry">
            <mxRectangle width="60.00000000000023" height="44" as="alternateBounds" />
          </mxGeometry>
        </mxCell>
        <mxCell id="F-UGYxU97noiECE80VYP-86" value="category" style="shape=partialRectangle;connectable=0;fillColor=none;top=0;left=0;bottom=0;right=0;align=left;spacingLeft=2;overflow=hidden;fontSize=13;fontFamily=Times New Roman;strokeColor=#A680B8;" vertex="1" parent="F-UGYxU97noiECE80VYP-84">
          <mxGeometry x="60.00000000000023" width="139.99999999999977" height="44" as="geometry">
            <mxRectangle width="139.99999999999977" height="44" as="alternateBounds" />
          </mxGeometry>
        </mxCell>
        <mxCell id="F-UGYxU97noiECE80VYP-87" value="" style="shape=partialRectangle;connectable=0;fillColor=none;top=0;left=0;bottom=0;right=0;align=left;spacingLeft=2;overflow=hidden;fontSize=13;fontFamily=Times New Roman;strokeColor=#A680B8;" vertex="1" parent="F-UGYxU97noiECE80VYP-84">
          <mxGeometry x="200" width="48" height="44" as="geometry">
            <mxRectangle width="48" height="44" as="alternateBounds" />
          </mxGeometry>
        </mxCell>
        <mxCell id="F-UGYxU97noiECE80VYP-88" style="shape=tableRow;horizontal=0;startSize=0;swimlaneHead=0;swimlaneBody=0;fillColor=none;collapsible=0;dropTarget=0;points=[[0,0.5],[1,0.5]];portConstraint=eastwest;top=0;left=0;right=0;bottom=0;fontFamily=Times New Roman;fontSize=13;strokeColor=#A680B8;" vertex="1" parent="F-UGYxU97noiECE80VYP-79">
          <mxGeometry y="113" width="248" height="44" as="geometry" />
        </mxCell>
        <mxCell id="F-UGYxU97noiECE80VYP-89" value="string" style="shape=partialRectangle;connectable=0;fillColor=none;top=0;left=0;bottom=0;right=0;align=left;spacingLeft=2;overflow=hidden;fontSize=13;fontFamily=Times New Roman;strokeColor=#A680B8;" vertex="1" parent="F-UGYxU97noiECE80VYP-88">
          <mxGeometry width="60.00000000000023" height="44" as="geometry">
            <mxRectangle width="60.00000000000023" height="44" as="alternateBounds" />
          </mxGeometry>
        </mxCell>
        <mxCell id="F-UGYxU97noiECE80VYP-90" value="code" style="shape=partialRectangle;connectable=0;fillColor=none;top=0;left=0;bottom=0;right=0;align=left;spacingLeft=2;overflow=hidden;fontSize=13;fontFamily=Times New Roman;strokeColor=#A680B8;" vertex="1" parent="F-UGYxU97noiECE80VYP-88">
          <mxGeometry x="60.00000000000023" width="139.99999999999977" height="44" as="geometry">
            <mxRectangle width="139.99999999999977" height="44" as="alternateBounds" />
          </mxGeometry>
        </mxCell>
        <mxCell id="F-UGYxU97noiECE80VYP-91" value="" style="shape=partialRectangle;connectable=0;fillColor=none;top=0;left=0;bottom=0;right=0;align=left;spacingLeft=2;overflow=hidden;fontSize=13;fontFamily=Times New Roman;strokeColor=#A680B8;" vertex="1" parent="F-UGYxU97noiECE80VYP-88">
          <mxGeometry x="200" width="48" height="44" as="geometry">
            <mxRectangle width="48" height="44" as="alternateBounds" />
          </mxGeometry>
        </mxCell>
        <mxCell id="F-UGYxU97noiECE80VYP-92" style="shape=tableRow;horizontal=0;startSize=0;swimlaneHead=0;swimlaneBody=0;fillColor=#e1d5e7;collapsible=0;dropTarget=0;points=[[0,0.5],[1,0.5]];portConstraint=eastwest;top=0;left=0;right=0;bottom=0;fontFamily=Times New Roman;fontSize=13;strokeColor=#9673a6;opacity=70;" vertex="1" parent="F-UGYxU97noiECE80VYP-79">
          <mxGeometry y="157" width="248" height="44" as="geometry" />
        </mxCell>
        <mxCell id="F-UGYxU97noiECE80VYP-93" value="string" style="shape=partialRectangle;connectable=0;fillColor=none;top=0;left=0;bottom=0;right=0;align=left;spacingLeft=2;overflow=hidden;fontSize=13;fontFamily=Times New Roman;strokeColor=#A680B8;" vertex="1" parent="F-UGYxU97noiECE80VYP-92">
          <mxGeometry width="60.00000000000023" height="44" as="geometry">
            <mxRectangle width="60.00000000000023" height="44" as="alternateBounds" />
          </mxGeometry>
        </mxCell>
        <mxCell id="F-UGYxU97noiECE80VYP-94" value="title" style="shape=partialRectangle;connectable=0;fillColor=none;top=0;left=0;bottom=0;right=0;align=left;spacingLeft=2;overflow=hidden;fontSize=13;fontFamily=Times New Roman;strokeColor=#A680B8;" vertex="1" parent="F-UGYxU97noiECE80VYP-92">
          <mxGeometry x="60.00000000000023" width="139.99999999999977" height="44" as="geometry">
            <mxRectangle width="139.99999999999977" height="44" as="alternateBounds" />
          </mxGeometry>
        </mxCell>
        <mxCell id="F-UGYxU97noiECE80VYP-95" value="" style="shape=partialRectangle;connectable=0;fillColor=none;top=0;left=0;bottom=0;right=0;align=left;spacingLeft=2;overflow=hidden;fontSize=13;fontFamily=Times New Roman;strokeColor=#A680B8;" vertex="1" parent="F-UGYxU97noiECE80VYP-92">
          <mxGeometry x="200" width="48" height="44" as="geometry">
            <mxRectangle width="48" height="44" as="alternateBounds" />
          </mxGeometry>
        </mxCell>
        <mxCell id="F-UGYxU97noiECE80VYP-96" style="shape=tableRow;horizontal=0;startSize=0;swimlaneHead=0;swimlaneBody=0;fillColor=none;collapsible=0;dropTarget=0;points=[[0,0.5],[1,0.5]];portConstraint=eastwest;top=0;left=0;right=0;bottom=0;fontFamily=Times New Roman;fontSize=13;strokeColor=#A680B8;" vertex="1" parent="F-UGYxU97noiECE80VYP-79">
          <mxGeometry y="201" width="248" height="44" as="geometry" />
        </mxCell>
        <mxCell id="F-UGYxU97noiECE80VYP-97" value="text" style="shape=partialRectangle;connectable=0;fillColor=none;top=0;left=0;bottom=0;right=0;align=left;spacingLeft=2;overflow=hidden;fontSize=13;fontFamily=Times New Roman;strokeColor=#A680B8;" vertex="1" parent="F-UGYxU97noiECE80VYP-96">
          <mxGeometry width="60.00000000000023" height="44" as="geometry">
            <mxRectangle width="60.00000000000023" height="44" as="alternateBounds" />
          </mxGeometry>
        </mxCell>
        <mxCell id="F-UGYxU97noiECE80VYP-98" value="description" style="shape=partialRectangle;connectable=0;fillColor=none;top=0;left=0;bottom=0;right=0;align=left;spacingLeft=2;overflow=hidden;fontSize=13;fontFamily=Times New Roman;strokeColor=#A680B8;" vertex="1" parent="F-UGYxU97noiECE80VYP-96">
          <mxGeometry x="60.00000000000023" width="139.99999999999977" height="44" as="geometry">
            <mxRectangle width="139.99999999999977" height="44" as="alternateBounds" />
          </mxGeometry>
        </mxCell>
        <mxCell id="F-UGYxU97noiECE80VYP-99" value="" style="shape=partialRectangle;connectable=0;fillColor=none;top=0;left=0;bottom=0;right=0;align=left;spacingLeft=2;overflow=hidden;fontSize=13;fontFamily=Times New Roman;strokeColor=#A680B8;" vertex="1" parent="F-UGYxU97noiECE80VYP-96">
          <mxGeometry x="200" width="48" height="44" as="geometry">
            <mxRectangle width="48" height="44" as="alternateBounds" />
          </mxGeometry>
        </mxCell>
        <mxCell id="F-UGYxU97noiECE80VYP-100" style="shape=tableRow;horizontal=0;startSize=0;swimlaneHead=0;swimlaneBody=0;fillColor=#e1d5e7;collapsible=0;dropTarget=0;points=[[0,0.5],[1,0.5]];portConstraint=eastwest;top=0;left=0;right=0;bottom=0;fontFamily=Times New Roman;fontSize=13;strokeColor=#9673a6;opacity=70;" vertex="1" parent="F-UGYxU97noiECE80VYP-79">
          <mxGeometry y="245" width="248" height="44" as="geometry" />
        </mxCell>
        <mxCell id="F-UGYxU97noiECE80VYP-101" value="text" style="shape=partialRectangle;connectable=0;fillColor=none;top=0;left=0;bottom=0;right=0;align=left;spacingLeft=2;overflow=hidden;fontSize=13;fontFamily=Times New Roman;strokeColor=#A680B8;" vertex="1" parent="F-UGYxU97noiECE80VYP-100">
          <mxGeometry width="60.00000000000023" height="44" as="geometry">
            <mxRectangle width="60.00000000000023" height="44" as="alternateBounds" />
          </mxGeometry>
        </mxCell>
        <mxCell id="F-UGYxU97noiECE80VYP-102" value="solution" style="shape=partialRectangle;connectable=0;fillColor=none;top=0;left=0;bottom=0;right=0;align=left;spacingLeft=2;overflow=hidden;fontSize=13;fontFamily=Times New Roman;strokeColor=#A680B8;" vertex="1" parent="F-UGYxU97noiECE80VYP-100">
          <mxGeometry x="60.00000000000023" width="139.99999999999977" height="44" as="geometry">
            <mxRectangle width="139.99999999999977" height="44" as="alternateBounds" />
          </mxGeometry>
        </mxCell>
        <mxCell id="F-UGYxU97noiECE80VYP-103" value="" style="shape=partialRectangle;connectable=0;fillColor=none;top=0;left=0;bottom=0;right=0;align=left;spacingLeft=2;overflow=hidden;fontSize=13;fontFamily=Times New Roman;strokeColor=#A680B8;" vertex="1" parent="F-UGYxU97noiECE80VYP-100">
          <mxGeometry x="200" width="48" height="44" as="geometry">
            <mxRectangle width="48" height="44" as="alternateBounds" />
          </mxGeometry>
        </mxCell>
        <mxCell id="F-UGYxU97noiECE80VYP-104" style="shape=tableRow;horizontal=0;startSize=0;swimlaneHead=0;swimlaneBody=0;fillColor=none;collapsible=0;dropTarget=0;points=[[0,0.5],[1,0.5]];portConstraint=eastwest;top=0;left=0;right=0;bottom=0;fontFamily=Times New Roman;fontSize=13;strokeColor=#A680B8;" vertex="1" parent="F-UGYxU97noiECE80VYP-79">
          <mxGeometry y="289" width="248" height="44" as="geometry" />
        </mxCell>
        <mxCell id="F-UGYxU97noiECE80VYP-105" value="string" style="shape=partialRectangle;connectable=0;fillColor=none;top=0;left=0;bottom=0;right=0;align=left;spacingLeft=2;overflow=hidden;fontSize=13;fontFamily=Times New Roman;strokeColor=#A680B8;" vertex="1" parent="F-UGYxU97noiECE80VYP-104">
          <mxGeometry width="60.00000000000023" height="44" as="geometry">
            <mxRectangle width="60.00000000000023" height="44" as="alternateBounds" />
          </mxGeometry>
        </mxCell>
        <mxCell id="F-UGYxU97noiECE80VYP-106" value="keywords" style="shape=partialRectangle;connectable=0;fillColor=none;top=0;left=0;bottom=0;right=0;align=left;spacingLeft=2;overflow=hidden;fontSize=13;fontFamily=Times New Roman;strokeColor=#A680B8;" vertex="1" parent="F-UGYxU97noiECE80VYP-104">
          <mxGeometry x="60.00000000000023" width="139.99999999999977" height="44" as="geometry">
            <mxRectangle width="139.99999999999977" height="44" as="alternateBounds" />
          </mxGeometry>
        </mxCell>
        <mxCell id="F-UGYxU97noiECE80VYP-107" value="" style="shape=partialRectangle;connectable=0;fillColor=none;top=0;left=0;bottom=0;right=0;align=left;spacingLeft=2;overflow=hidden;fontSize=13;fontFamily=Times New Roman;strokeColor=#A680B8;" vertex="1" parent="F-UGYxU97noiECE80VYP-104">
          <mxGeometry x="200" width="48" height="44" as="geometry">
            <mxRectangle width="48" height="44" as="alternateBounds" />
          </mxGeometry>
        </mxCell>
        <mxCell id="F-UGYxU97noiECE80VYP-108" style="shape=tableRow;horizontal=0;startSize=0;swimlaneHead=0;swimlaneBody=0;fillColor=#e1d5e7;collapsible=0;dropTarget=0;points=[[0,0.5],[1,0.5]];portConstraint=eastwest;top=0;left=0;right=0;bottom=0;fontFamily=Times New Roman;fontSize=13;strokeColor=#9673a6;opacity=70;" vertex="1" parent="F-UGYxU97noiECE80VYP-79">
          <mxGeometry y="333" width="248" height="44" as="geometry" />
        </mxCell>
        <mxCell id="F-UGYxU97noiECE80VYP-109" value="string" style="shape=partialRectangle;connectable=0;fillColor=none;top=0;left=0;bottom=0;right=0;align=left;spacingLeft=2;overflow=hidden;fontSize=13;fontFamily=Times New Roman;strokeColor=#A680B8;" vertex="1" parent="F-UGYxU97noiECE80VYP-108">
          <mxGeometry width="60.00000000000023" height="44" as="geometry">
            <mxRectangle width="60.00000000000023" height="44" as="alternateBounds" />
          </mxGeometry>
        </mxCell>
        <mxCell id="F-UGYxU97noiECE80VYP-110" value="attachments" style="shape=partialRectangle;connectable=0;fillColor=none;top=0;left=0;bottom=0;right=0;align=left;spacingLeft=2;overflow=hidden;fontSize=13;fontFamily=Times New Roman;strokeColor=#A680B8;" vertex="1" parent="F-UGYxU97noiECE80VYP-108">
          <mxGeometry x="60.00000000000023" width="139.99999999999977" height="44" as="geometry">
            <mxRectangle width="139.99999999999977" height="44" as="alternateBounds" />
          </mxGeometry>
        </mxCell>
        <mxCell id="F-UGYxU97noiECE80VYP-111" value="" style="shape=partialRectangle;connectable=0;fillColor=none;top=0;left=0;bottom=0;right=0;align=left;spacingLeft=2;overflow=hidden;fontSize=13;fontFamily=Times New Roman;strokeColor=#A680B8;" vertex="1" parent="F-UGYxU97noiECE80VYP-108">
          <mxGeometry x="200" width="48" height="44" as="geometry">
            <mxRectangle width="48" height="44" as="alternateBounds" />
          </mxGeometry>
        </mxCell>
        <mxCell id="F-UGYxU97noiECE80VYP-112" style="shape=tableRow;horizontal=0;startSize=0;swimlaneHead=0;swimlaneBody=0;fillColor=none;collapsible=0;dropTarget=0;points=[[0,0.5],[1,0.5]];portConstraint=eastwest;top=0;left=0;right=0;bottom=0;fontFamily=Times New Roman;fontSize=13;strokeColor=#A680B8;" vertex="1" parent="F-UGYxU97noiECE80VYP-79">
          <mxGeometry y="377" width="248" height="44" as="geometry" />
        </mxCell>
        <mxCell id="F-UGYxU97noiECE80VYP-113" value="string" style="shape=partialRectangle;connectable=0;fillColor=none;top=0;left=0;bottom=0;right=0;align=left;spacingLeft=2;overflow=hidden;fontSize=13;fontFamily=Times New Roman;strokeColor=#A680B8;" vertex="1" parent="F-UGYxU97noiECE80VYP-112">
          <mxGeometry width="60.00000000000023" height="44" as="geometry">
            <mxRectangle width="60.00000000000023" height="44" as="alternateBounds" />
          </mxGeometry>
        </mxCell>
        <mxCell id="F-UGYxU97noiECE80VYP-114" value="priority" style="shape=partialRectangle;connectable=0;fillColor=none;top=0;left=0;bottom=0;right=0;align=left;spacingLeft=2;overflow=hidden;fontSize=13;fontFamily=Times New Roman;strokeColor=#A680B8;" vertex="1" parent="F-UGYxU97noiECE80VYP-112">
          <mxGeometry x="60.00000000000023" width="139.99999999999977" height="44" as="geometry">
            <mxRectangle width="139.99999999999977" height="44" as="alternateBounds" />
          </mxGeometry>
        </mxCell>
        <mxCell id="F-UGYxU97noiECE80VYP-115" value="" style="shape=partialRectangle;connectable=0;fillColor=none;top=0;left=0;bottom=0;right=0;align=left;spacingLeft=2;overflow=hidden;fontSize=13;fontFamily=Times New Roman;strokeColor=#A680B8;" vertex="1" parent="F-UGYxU97noiECE80VYP-112">
          <mxGeometry x="200" width="48" height="44" as="geometry">
            <mxRectangle width="48" height="44" as="alternateBounds" />
          </mxGeometry>
        </mxCell>
        <mxCell id="F-UGYxU97noiECE80VYP-116" style="shape=tableRow;horizontal=0;startSize=0;swimlaneHead=0;swimlaneBody=0;fillColor=#e1d5e7;collapsible=0;dropTarget=0;points=[[0,0.5],[1,0.5]];portConstraint=eastwest;top=0;left=0;right=0;bottom=0;fontFamily=Times New Roman;fontSize=13;strokeColor=#9673a6;opacity=70;" vertex="1" parent="F-UGYxU97noiECE80VYP-79">
          <mxGeometry y="421" width="248" height="44" as="geometry" />
        </mxCell>
        <mxCell id="F-UGYxU97noiECE80VYP-117" value="string" style="shape=partialRectangle;connectable=0;fillColor=none;top=0;left=0;bottom=0;right=0;align=left;spacingLeft=2;overflow=hidden;fontSize=13;fontFamily=Times New Roman;strokeColor=#A680B8;" vertex="1" parent="F-UGYxU97noiECE80VYP-116">
          <mxGeometry width="60.00000000000023" height="44" as="geometry">
            <mxRectangle width="60.00000000000023" height="44" as="alternateBounds" />
          </mxGeometry>
        </mxCell>
        <mxCell id="F-UGYxU97noiECE80VYP-118" value="status" style="shape=partialRectangle;connectable=0;fillColor=none;top=0;left=0;bottom=0;right=0;align=left;spacingLeft=2;overflow=hidden;fontSize=13;fontFamily=Times New Roman;strokeColor=#A680B8;" vertex="1" parent="F-UGYxU97noiECE80VYP-116">
          <mxGeometry x="60.00000000000023" width="139.99999999999977" height="44" as="geometry">
            <mxRectangle width="139.99999999999977" height="44" as="alternateBounds" />
          </mxGeometry>
        </mxCell>
        <mxCell id="F-UGYxU97noiECE80VYP-119" value="" style="shape=partialRectangle;connectable=0;fillColor=none;top=0;left=0;bottom=0;right=0;align=left;spacingLeft=2;overflow=hidden;fontSize=13;fontFamily=Times New Roman;strokeColor=#A680B8;" vertex="1" parent="F-UGYxU97noiECE80VYP-116">
          <mxGeometry x="200" width="48" height="44" as="geometry">
            <mxRectangle width="48" height="44" as="alternateBounds" />
          </mxGeometry>
        </mxCell>
        <mxCell id="F-UGYxU97noiECE80VYP-120" style="shape=tableRow;horizontal=0;startSize=0;swimlaneHead=0;swimlaneBody=0;fillColor=none;collapsible=0;dropTarget=0;points=[[0,0.5],[1,0.5]];portConstraint=eastwest;top=0;left=0;right=0;bottom=0;fontFamily=Times New Roman;fontSize=13;strokeColor=#A680B8;" vertex="1" parent="F-UGYxU97noiECE80VYP-79">
          <mxGeometry y="465" width="248" height="44" as="geometry" />
        </mxCell>
        <mxCell id="F-UGYxU97noiECE80VYP-121" value="int" style="shape=partialRectangle;connectable=0;fillColor=none;top=0;left=0;bottom=0;right=0;align=left;spacingLeft=2;overflow=hidden;fontSize=13;fontFamily=Times New Roman;strokeColor=#A680B8;" vertex="1" parent="F-UGYxU97noiECE80VYP-120">
          <mxGeometry width="60.00000000000023" height="44" as="geometry">
            <mxRectangle width="60.00000000000023" height="44" as="alternateBounds" />
          </mxGeometry>
        </mxCell>
        <mxCell id="F-UGYxU97noiECE80VYP-122" value="created_by" style="shape=partialRectangle;connectable=0;fillColor=none;top=0;left=0;bottom=0;right=0;align=left;spacingLeft=2;overflow=hidden;fontSize=13;fontFamily=Times New Roman;strokeColor=#A680B8;" vertex="1" parent="F-UGYxU97noiECE80VYP-120">
          <mxGeometry x="60.00000000000023" width="139.99999999999977" height="44" as="geometry">
            <mxRectangle width="139.99999999999977" height="44" as="alternateBounds" />
          </mxGeometry>
        </mxCell>
        <mxCell id="F-UGYxU97noiECE80VYP-123" value="FK" style="shape=partialRectangle;connectable=0;fillColor=none;top=0;left=0;bottom=0;right=0;align=left;spacingLeft=2;overflow=hidden;fontSize=13;fontFamily=Times New Roman;strokeColor=#A680B8;" vertex="1" parent="F-UGYxU97noiECE80VYP-120">
          <mxGeometry x="200" width="48" height="44" as="geometry">
            <mxRectangle width="48" height="44" as="alternateBounds" />
          </mxGeometry>
        </mxCell>
        <mxCell id="F-UGYxU97noiECE80VYP-124" style="shape=tableRow;horizontal=0;startSize=0;swimlaneHead=0;swimlaneBody=0;fillColor=#e1d5e7;collapsible=0;dropTarget=0;points=[[0,0.5],[1,0.5]];portConstraint=eastwest;top=0;left=0;right=0;bottom=0;fontFamily=Times New Roman;fontSize=13;strokeColor=#9673a6;opacity=70;" vertex="1" parent="F-UGYxU97noiECE80VYP-79">
          <mxGeometry y="509" width="248" height="44" as="geometry" />
        </mxCell>
        <mxCell id="F-UGYxU97noiECE80VYP-125" value="int" style="shape=partialRectangle;connectable=0;fillColor=none;top=0;left=0;bottom=0;right=0;align=left;spacingLeft=2;overflow=hidden;fontSize=13;fontFamily=Times New Roman;strokeColor=#A680B8;" vertex="1" parent="F-UGYxU97noiECE80VYP-124">
          <mxGeometry width="60.00000000000023" height="44" as="geometry">
            <mxRectangle width="60.00000000000023" height="44" as="alternateBounds" />
          </mxGeometry>
        </mxCell>
        <mxCell id="F-UGYxU97noiECE80VYP-126" value="updated_by" style="shape=partialRectangle;connectable=0;fillColor=none;top=0;left=0;bottom=0;right=0;align=left;spacingLeft=2;overflow=hidden;fontSize=13;fontFamily=Times New Roman;strokeColor=#A680B8;" vertex="1" parent="F-UGYxU97noiECE80VYP-124">
          <mxGeometry x="60.00000000000023" width="139.99999999999977" height="44" as="geometry">
            <mxRectangle width="139.99999999999977" height="44" as="alternateBounds" />
          </mxGeometry>
        </mxCell>
        <mxCell id="F-UGYxU97noiECE80VYP-127" value="FK" style="shape=partialRectangle;connectable=0;fillColor=none;top=0;left=0;bottom=0;right=0;align=left;spacingLeft=2;overflow=hidden;fontSize=13;fontFamily=Times New Roman;strokeColor=#A680B8;" vertex="1" parent="F-UGYxU97noiECE80VYP-124">
          <mxGeometry x="200" width="48" height="44" as="geometry">
            <mxRectangle width="48" height="44" as="alternateBounds" />
          </mxGeometry>
        </mxCell>
        <mxCell id="F-UGYxU97noiECE80VYP-128" style="shape=tableRow;horizontal=0;startSize=0;swimlaneHead=0;swimlaneBody=0;fillColor=none;collapsible=0;dropTarget=0;points=[[0,0.5],[1,0.5]];portConstraint=eastwest;top=0;left=0;right=0;bottom=0;fontFamily=Times New Roman;fontSize=13;strokeColor=#A680B8;" vertex="1" parent="F-UGYxU97noiECE80VYP-79">
          <mxGeometry y="553" width="248" height="44" as="geometry" />
        </mxCell>
        <mxCell id="F-UGYxU97noiECE80VYP-129" value="datetime" style="shape=partialRectangle;connectable=0;fillColor=none;top=0;left=0;bottom=0;right=0;align=left;spacingLeft=2;overflow=hidden;fontSize=13;fontFamily=Times New Roman;strokeColor=#A680B8;" vertex="1" parent="F-UGYxU97noiECE80VYP-128">
          <mxGeometry width="60.00000000000023" height="44" as="geometry">
            <mxRectangle width="60.00000000000023" height="44" as="alternateBounds" />
          </mxGeometry>
        </mxCell>
        <mxCell id="F-UGYxU97noiECE80VYP-130" value="created_at" style="shape=partialRectangle;connectable=0;fillColor=none;top=0;left=0;bottom=0;right=0;align=left;spacingLeft=2;overflow=hidden;fontSize=13;fontFamily=Times New Roman;strokeColor=#A680B8;" vertex="1" parent="F-UGYxU97noiECE80VYP-128">
          <mxGeometry x="60.00000000000023" width="139.99999999999977" height="44" as="geometry">
            <mxRectangle width="139.99999999999977" height="44" as="alternateBounds" />
          </mxGeometry>
        </mxCell>
        <mxCell id="F-UGYxU97noiECE80VYP-131" value="" style="shape=partialRectangle;connectable=0;fillColor=none;top=0;left=0;bottom=0;right=0;align=left;spacingLeft=2;overflow=hidden;fontSize=13;fontFamily=Times New Roman;strokeColor=#A680B8;" vertex="1" parent="F-UGYxU97noiECE80VYP-128">
          <mxGeometry x="200" width="48" height="44" as="geometry">
            <mxRectangle width="48" height="44" as="alternateBounds" />
          </mxGeometry>
        </mxCell>
        <mxCell id="F-UGYxU97noiECE80VYP-132" style="shape=tableRow;horizontal=0;startSize=0;swimlaneHead=0;swimlaneBody=0;fillColor=#e1d5e7;collapsible=0;dropTarget=0;points=[[0,0.5],[1,0.5]];portConstraint=eastwest;top=0;left=0;right=0;bottom=0;fontFamily=Times New Roman;fontSize=13;strokeColor=#9673a6;opacity=70;" vertex="1" parent="F-UGYxU97noiECE80VYP-79">
          <mxGeometry y="597" width="248" height="44" as="geometry" />
        </mxCell>
        <mxCell id="F-UGYxU97noiECE80VYP-133" value="datetime" style="shape=partialRectangle;connectable=0;fillColor=none;top=0;left=0;bottom=0;right=0;align=left;spacingLeft=2;overflow=hidden;fontSize=13;fontFamily=Times New Roman;strokeColor=#A680B8;" vertex="1" parent="F-UGYxU97noiECE80VYP-132">
          <mxGeometry width="60.00000000000023" height="44" as="geometry">
            <mxRectangle width="60.00000000000023" height="44" as="alternateBounds" />
          </mxGeometry>
        </mxCell>
        <mxCell id="F-UGYxU97noiECE80VYP-134" value="updated_at" style="shape=partialRectangle;connectable=0;fillColor=none;top=0;left=0;bottom=0;right=0;align=left;spacingLeft=2;overflow=hidden;fontSize=13;fontFamily=Times New Roman;strokeColor=#A680B8;" vertex="1" parent="F-UGYxU97noiECE80VYP-132">
          <mxGeometry x="60.00000000000023" width="139.99999999999977" height="44" as="geometry">
            <mxRectangle width="139.99999999999977" height="44" as="alternateBounds" />
          </mxGeometry>
        </mxCell>
        <mxCell id="F-UGYxU97noiECE80VYP-135" value="" style="shape=partialRectangle;connectable=0;fillColor=none;top=0;left=0;bottom=0;right=0;align=left;spacingLeft=2;overflow=hidden;fontSize=13;fontFamily=Times New Roman;strokeColor=#A680B8;" vertex="1" parent="F-UGYxU97noiECE80VYP-132">
          <mxGeometry x="200" width="48" height="44" as="geometry">
            <mxRectangle width="48" height="44" as="alternateBounds" />
          </mxGeometry>
        </mxCell>
        <mxCell id="F-UGYxU97noiECE80VYP-136" value="API_SYSTEM" style="shape=table;startSize=25;container=1;collapsible=0;childLayout=tableLayout;fixedRows=1;rowLines=1;fontStyle=1;align=center;resizeLast=1;fontFamily=Times New Roman;fontSize=13;strokeColor=#9673a6;fillColor=#e1d5e7;fontColor=#684E75;" vertex="1" parent="1">
          <mxGeometry x="797" y="486" width="255" height="513" as="geometry" />
        </mxCell>
        <mxCell id="F-UGYxU97noiECE80VYP-137" style="shape=tableRow;horizontal=0;startSize=0;swimlaneHead=0;swimlaneBody=0;fillColor=none;collapsible=0;dropTarget=0;points=[[0,0.5],[1,0.5]];portConstraint=eastwest;top=0;left=0;right=0;bottom=0;fontFamily=Times New Roman;fontSize=13;strokeColor=#A680B8;" vertex="1" parent="F-UGYxU97noiECE80VYP-136">
          <mxGeometry y="25" width="255" height="44" as="geometry" />
        </mxCell>
        <mxCell id="F-UGYxU97noiECE80VYP-138" value="int" style="shape=partialRectangle;connectable=0;fillColor=none;top=0;left=0;bottom=0;right=0;align=left;spacingLeft=2;overflow=hidden;fontSize=13;fontFamily=Times New Roman;strokeColor=#A680B8;" vertex="1" parent="F-UGYxU97noiECE80VYP-137">
          <mxGeometry width="63" height="44" as="geometry">
            <mxRectangle width="63" height="44" as="alternateBounds" />
          </mxGeometry>
        </mxCell>
        <mxCell id="F-UGYxU97noiECE80VYP-139" value="system_id" style="shape=partialRectangle;connectable=0;fillColor=none;top=0;left=0;bottom=0;right=0;align=left;spacingLeft=2;overflow=hidden;fontSize=13;fontFamily=Times New Roman;strokeColor=#A680B8;" vertex="1" parent="F-UGYxU97noiECE80VYP-137">
          <mxGeometry x="63" width="150" height="44" as="geometry">
            <mxRectangle width="150" height="44" as="alternateBounds" />
          </mxGeometry>
        </mxCell>
        <mxCell id="F-UGYxU97noiECE80VYP-140" value="PK" style="shape=partialRectangle;connectable=0;fillColor=none;top=0;left=0;bottom=0;right=0;align=left;spacingLeft=2;overflow=hidden;fontSize=13;fontFamily=Times New Roman;strokeColor=#A680B8;" vertex="1" parent="F-UGYxU97noiECE80VYP-137">
          <mxGeometry x="213" width="42" height="44" as="geometry">
            <mxRectangle width="42" height="44" as="alternateBounds" />
          </mxGeometry>
        </mxCell>
        <mxCell id="F-UGYxU97noiECE80VYP-141" style="shape=tableRow;horizontal=0;startSize=0;swimlaneHead=0;swimlaneBody=0;fillColor=#e1d5e7;collapsible=0;dropTarget=0;points=[[0,0.5],[1,0.5]];portConstraint=eastwest;top=0;left=0;right=0;bottom=0;fontFamily=Times New Roman;fontSize=13;strokeColor=#9673a6;opacity=70;" vertex="1" parent="F-UGYxU97noiECE80VYP-136">
          <mxGeometry y="69" width="255" height="44" as="geometry" />
        </mxCell>
        <mxCell id="F-UGYxU97noiECE80VYP-142" value="string" style="shape=partialRectangle;connectable=0;fillColor=none;top=0;left=0;bottom=0;right=0;align=left;spacingLeft=2;overflow=hidden;fontSize=13;fontFamily=Times New Roman;strokeColor=#A680B8;" vertex="1" parent="F-UGYxU97noiECE80VYP-141">
          <mxGeometry width="63" height="44" as="geometry">
            <mxRectangle width="63" height="44" as="alternateBounds" />
          </mxGeometry>
        </mxCell>
        <mxCell id="F-UGYxU97noiECE80VYP-143" value="system_code" style="shape=partialRectangle;connectable=0;fillColor=none;top=0;left=0;bottom=0;right=0;align=left;spacingLeft=2;overflow=hidden;fontSize=13;fontFamily=Times New Roman;strokeColor=#A680B8;" vertex="1" parent="F-UGYxU97noiECE80VYP-141">
          <mxGeometry x="63" width="150" height="44" as="geometry">
            <mxRectangle width="150" height="44" as="alternateBounds" />
          </mxGeometry>
        </mxCell>
        <mxCell id="F-UGYxU97noiECE80VYP-144" value="" style="shape=partialRectangle;connectable=0;fillColor=none;top=0;left=0;bottom=0;right=0;align=left;spacingLeft=2;overflow=hidden;fontSize=13;fontFamily=Times New Roman;strokeColor=#A680B8;" vertex="1" parent="F-UGYxU97noiECE80VYP-141">
          <mxGeometry x="213" width="42" height="44" as="geometry">
            <mxRectangle width="42" height="44" as="alternateBounds" />
          </mxGeometry>
        </mxCell>
        <mxCell id="F-UGYxU97noiECE80VYP-145" style="shape=tableRow;horizontal=0;startSize=0;swimlaneHead=0;swimlaneBody=0;fillColor=none;collapsible=0;dropTarget=0;points=[[0,0.5],[1,0.5]];portConstraint=eastwest;top=0;left=0;right=0;bottom=0;fontFamily=Times New Roman;fontSize=13;strokeColor=#A680B8;" vertex="1" parent="F-UGYxU97noiECE80VYP-136">
          <mxGeometry y="113" width="255" height="44" as="geometry" />
        </mxCell>
        <mxCell id="F-UGYxU97noiECE80VYP-146" value="string" style="shape=partialRectangle;connectable=0;fillColor=none;top=0;left=0;bottom=0;right=0;align=left;spacingLeft=2;overflow=hidden;fontSize=13;fontFamily=Times New Roman;strokeColor=#A680B8;" vertex="1" parent="F-UGYxU97noiECE80VYP-145">
          <mxGeometry width="63" height="44" as="geometry">
            <mxRectangle width="63" height="44" as="alternateBounds" />
          </mxGeometry>
        </mxCell>
        <mxCell id="F-UGYxU97noiECE80VYP-147" value="system_name" style="shape=partialRectangle;connectable=0;fillColor=none;top=0;left=0;bottom=0;right=0;align=left;spacingLeft=2;overflow=hidden;fontSize=13;fontFamily=Times New Roman;strokeColor=#A680B8;" vertex="1" parent="F-UGYxU97noiECE80VYP-145">
          <mxGeometry x="63" width="150" height="44" as="geometry">
            <mxRectangle width="150" height="44" as="alternateBounds" />
          </mxGeometry>
        </mxCell>
        <mxCell id="F-UGYxU97noiECE80VYP-148" value="" style="shape=partialRectangle;connectable=0;fillColor=none;top=0;left=0;bottom=0;right=0;align=left;spacingLeft=2;overflow=hidden;fontSize=13;fontFamily=Times New Roman;strokeColor=#A680B8;" vertex="1" parent="F-UGYxU97noiECE80VYP-145">
          <mxGeometry x="213" width="42" height="44" as="geometry">
            <mxRectangle width="42" height="44" as="alternateBounds" />
          </mxGeometry>
        </mxCell>
        <mxCell id="F-UGYxU97noiECE80VYP-149" style="shape=tableRow;horizontal=0;startSize=0;swimlaneHead=0;swimlaneBody=0;fillColor=#e1d5e7;collapsible=0;dropTarget=0;points=[[0,0.5],[1,0.5]];portConstraint=eastwest;top=0;left=0;right=0;bottom=0;fontFamily=Times New Roman;fontSize=13;strokeColor=#9673a6;opacity=70;" vertex="1" parent="F-UGYxU97noiECE80VYP-136">
          <mxGeometry y="157" width="255" height="44" as="geometry" />
        </mxCell>
        <mxCell id="F-UGYxU97noiECE80VYP-150" value="string" style="shape=partialRectangle;connectable=0;fillColor=none;top=0;left=0;bottom=0;right=0;align=left;spacingLeft=2;overflow=hidden;fontSize=13;fontFamily=Times New Roman;strokeColor=#A680B8;" vertex="1" parent="F-UGYxU97noiECE80VYP-149">
          <mxGeometry width="63" height="44" as="geometry">
            <mxRectangle width="63" height="44" as="alternateBounds" />
          </mxGeometry>
        </mxCell>
        <mxCell id="F-UGYxU97noiECE80VYP-151" value="system_type" style="shape=partialRectangle;connectable=0;fillColor=none;top=0;left=0;bottom=0;right=0;align=left;spacingLeft=2;overflow=hidden;fontSize=13;fontFamily=Times New Roman;strokeColor=#A680B8;" vertex="1" parent="F-UGYxU97noiECE80VYP-149">
          <mxGeometry x="63" width="150" height="44" as="geometry">
            <mxRectangle width="150" height="44" as="alternateBounds" />
          </mxGeometry>
        </mxCell>
        <mxCell id="F-UGYxU97noiECE80VYP-152" value="" style="shape=partialRectangle;connectable=0;fillColor=none;top=0;left=0;bottom=0;right=0;align=left;spacingLeft=2;overflow=hidden;fontSize=13;fontFamily=Times New Roman;strokeColor=#A680B8;" vertex="1" parent="F-UGYxU97noiECE80VYP-149">
          <mxGeometry x="213" width="42" height="44" as="geometry">
            <mxRectangle width="42" height="44" as="alternateBounds" />
          </mxGeometry>
        </mxCell>
        <mxCell id="F-UGYxU97noiECE80VYP-153" style="shape=tableRow;horizontal=0;startSize=0;swimlaneHead=0;swimlaneBody=0;fillColor=none;collapsible=0;dropTarget=0;points=[[0,0.5],[1,0.5]];portConstraint=eastwest;top=0;left=0;right=0;bottom=0;fontFamily=Times New Roman;fontSize=13;strokeColor=#A680B8;" vertex="1" parent="F-UGYxU97noiECE80VYP-136">
          <mxGeometry y="201" width="255" height="44" as="geometry" />
        </mxCell>
        <mxCell id="F-UGYxU97noiECE80VYP-154" value="text" style="shape=partialRectangle;connectable=0;fillColor=none;top=0;left=0;bottom=0;right=0;align=left;spacingLeft=2;overflow=hidden;fontSize=13;fontFamily=Times New Roman;strokeColor=#A680B8;" vertex="1" parent="F-UGYxU97noiECE80VYP-153">
          <mxGeometry width="63" height="44" as="geometry">
            <mxRectangle width="63" height="44" as="alternateBounds" />
          </mxGeometry>
        </mxCell>
        <mxCell id="F-UGYxU97noiECE80VYP-155" value="description" style="shape=partialRectangle;connectable=0;fillColor=none;top=0;left=0;bottom=0;right=0;align=left;spacingLeft=2;overflow=hidden;fontSize=13;fontFamily=Times New Roman;strokeColor=#A680B8;" vertex="1" parent="F-UGYxU97noiECE80VYP-153">
          <mxGeometry x="63" width="150" height="44" as="geometry">
            <mxRectangle width="150" height="44" as="alternateBounds" />
          </mxGeometry>
        </mxCell>
        <mxCell id="F-UGYxU97noiECE80VYP-156" value="" style="shape=partialRectangle;connectable=0;fillColor=none;top=0;left=0;bottom=0;right=0;align=left;spacingLeft=2;overflow=hidden;fontSize=13;fontFamily=Times New Roman;strokeColor=#A680B8;" vertex="1" parent="F-UGYxU97noiECE80VYP-153">
          <mxGeometry x="213" width="42" height="44" as="geometry">
            <mxRectangle width="42" height="44" as="alternateBounds" />
          </mxGeometry>
        </mxCell>
        <mxCell id="F-UGYxU97noiECE80VYP-157" style="shape=tableRow;horizontal=0;startSize=0;swimlaneHead=0;swimlaneBody=0;fillColor=#e1d5e7;collapsible=0;dropTarget=0;points=[[0,0.5],[1,0.5]];portConstraint=eastwest;top=0;left=0;right=0;bottom=0;fontFamily=Times New Roman;fontSize=13;strokeColor=#9673a6;opacity=70;" vertex="1" parent="F-UGYxU97noiECE80VYP-136">
          <mxGeometry y="245" width="255" height="44" as="geometry" />
        </mxCell>
        <mxCell id="F-UGYxU97noiECE80VYP-158" value="string" style="shape=partialRectangle;connectable=0;fillColor=none;top=0;left=0;bottom=0;right=0;align=left;spacingLeft=2;overflow=hidden;fontSize=13;fontFamily=Times New Roman;strokeColor=#A680B8;" vertex="1" parent="F-UGYxU97noiECE80VYP-157">
          <mxGeometry width="63" height="44" as="geometry">
            <mxRectangle width="63" height="44" as="alternateBounds" />
          </mxGeometry>
        </mxCell>
        <mxCell id="F-UGYxU97noiECE80VYP-159" value="version" style="shape=partialRectangle;connectable=0;fillColor=none;top=0;left=0;bottom=0;right=0;align=left;spacingLeft=2;overflow=hidden;fontSize=13;fontFamily=Times New Roman;strokeColor=#A680B8;" vertex="1" parent="F-UGYxU97noiECE80VYP-157">
          <mxGeometry x="63" width="150" height="44" as="geometry">
            <mxRectangle width="150" height="44" as="alternateBounds" />
          </mxGeometry>
        </mxCell>
        <mxCell id="F-UGYxU97noiECE80VYP-160" value="" style="shape=partialRectangle;connectable=0;fillColor=none;top=0;left=0;bottom=0;right=0;align=left;spacingLeft=2;overflow=hidden;fontSize=13;fontFamily=Times New Roman;strokeColor=#A680B8;" vertex="1" parent="F-UGYxU97noiECE80VYP-157">
          <mxGeometry x="213" width="42" height="44" as="geometry">
            <mxRectangle width="42" height="44" as="alternateBounds" />
          </mxGeometry>
        </mxCell>
        <mxCell id="F-UGYxU97noiECE80VYP-161" style="shape=tableRow;horizontal=0;startSize=0;swimlaneHead=0;swimlaneBody=0;fillColor=none;collapsible=0;dropTarget=0;points=[[0,0.5],[1,0.5]];portConstraint=eastwest;top=0;left=0;right=0;bottom=0;fontFamily=Times New Roman;fontSize=13;strokeColor=#A680B8;" vertex="1" parent="F-UGYxU97noiECE80VYP-136">
          <mxGeometry y="289" width="255" height="44" as="geometry" />
        </mxCell>
        <mxCell id="F-UGYxU97noiECE80VYP-162" value="string" style="shape=partialRectangle;connectable=0;fillColor=none;top=0;left=0;bottom=0;right=0;align=left;spacingLeft=2;overflow=hidden;fontSize=13;fontFamily=Times New Roman;strokeColor=#A680B8;" vertex="1" parent="F-UGYxU97noiECE80VYP-161">
          <mxGeometry width="63" height="44" as="geometry">
            <mxRectangle width="63" height="44" as="alternateBounds" />
          </mxGeometry>
        </mxCell>
        <mxCell id="F-UGYxU97noiECE80VYP-163" value="status" style="shape=partialRectangle;connectable=0;fillColor=none;top=0;left=0;bottom=0;right=0;align=left;spacingLeft=2;overflow=hidden;fontSize=13;fontFamily=Times New Roman;strokeColor=#A680B8;" vertex="1" parent="F-UGYxU97noiECE80VYP-161">
          <mxGeometry x="63" width="150" height="44" as="geometry">
            <mxRectangle width="150" height="44" as="alternateBounds" />
          </mxGeometry>
        </mxCell>
        <mxCell id="F-UGYxU97noiECE80VYP-164" value="" style="shape=partialRectangle;connectable=0;fillColor=none;top=0;left=0;bottom=0;right=0;align=left;spacingLeft=2;overflow=hidden;fontSize=13;fontFamily=Times New Roman;strokeColor=#A680B8;" vertex="1" parent="F-UGYxU97noiECE80VYP-161">
          <mxGeometry x="213" width="42" height="44" as="geometry">
            <mxRectangle width="42" height="44" as="alternateBounds" />
          </mxGeometry>
        </mxCell>
        <mxCell id="F-UGYxU97noiECE80VYP-165" style="shape=tableRow;horizontal=0;startSize=0;swimlaneHead=0;swimlaneBody=0;fillColor=#e1d5e7;collapsible=0;dropTarget=0;points=[[0,0.5],[1,0.5]];portConstraint=eastwest;top=0;left=0;right=0;bottom=0;fontFamily=Times New Roman;fontSize=13;strokeColor=#9673a6;opacity=70;" vertex="1" parent="F-UGYxU97noiECE80VYP-136">
          <mxGeometry y="333" width="255" height="44" as="geometry" />
        </mxCell>
        <mxCell id="F-UGYxU97noiECE80VYP-166" value="int" style="shape=partialRectangle;connectable=0;fillColor=none;top=0;left=0;bottom=0;right=0;align=left;spacingLeft=2;overflow=hidden;fontSize=13;fontFamily=Times New Roman;strokeColor=#A680B8;" vertex="1" parent="F-UGYxU97noiECE80VYP-165">
          <mxGeometry width="63" height="44" as="geometry">
            <mxRectangle width="63" height="44" as="alternateBounds" />
          </mxGeometry>
        </mxCell>
        <mxCell id="F-UGYxU97noiECE80VYP-167" value="created_by" style="shape=partialRectangle;connectable=0;fillColor=none;top=0;left=0;bottom=0;right=0;align=left;spacingLeft=2;overflow=hidden;fontSize=13;fontFamily=Times New Roman;strokeColor=#A680B8;" vertex="1" parent="F-UGYxU97noiECE80VYP-165">
          <mxGeometry x="63" width="150" height="44" as="geometry">
            <mxRectangle width="150" height="44" as="alternateBounds" />
          </mxGeometry>
        </mxCell>
        <mxCell id="F-UGYxU97noiECE80VYP-168" value="FK" style="shape=partialRectangle;connectable=0;fillColor=none;top=0;left=0;bottom=0;right=0;align=left;spacingLeft=2;overflow=hidden;fontSize=13;fontFamily=Times New Roman;strokeColor=#A680B8;" vertex="1" parent="F-UGYxU97noiECE80VYP-165">
          <mxGeometry x="213" width="42" height="44" as="geometry">
            <mxRectangle width="42" height="44" as="alternateBounds" />
          </mxGeometry>
        </mxCell>
        <mxCell id="F-UGYxU97noiECE80VYP-169" style="shape=tableRow;horizontal=0;startSize=0;swimlaneHead=0;swimlaneBody=0;fillColor=none;collapsible=0;dropTarget=0;points=[[0,0.5],[1,0.5]];portConstraint=eastwest;top=0;left=0;right=0;bottom=0;fontFamily=Times New Roman;fontSize=13;strokeColor=#A680B8;" vertex="1" parent="F-UGYxU97noiECE80VYP-136">
          <mxGeometry y="377" width="255" height="44" as="geometry" />
        </mxCell>
        <mxCell id="F-UGYxU97noiECE80VYP-170" value="int" style="shape=partialRectangle;connectable=0;fillColor=none;top=0;left=0;bottom=0;right=0;align=left;spacingLeft=2;overflow=hidden;fontSize=13;fontFamily=Times New Roman;strokeColor=#A680B8;" vertex="1" parent="F-UGYxU97noiECE80VYP-169">
          <mxGeometry width="63" height="44" as="geometry">
            <mxRectangle width="63" height="44" as="alternateBounds" />
          </mxGeometry>
        </mxCell>
        <mxCell id="F-UGYxU97noiECE80VYP-171" value="updated_by" style="shape=partialRectangle;connectable=0;fillColor=none;top=0;left=0;bottom=0;right=0;align=left;spacingLeft=2;overflow=hidden;fontSize=13;fontFamily=Times New Roman;strokeColor=#A680B8;" vertex="1" parent="F-UGYxU97noiECE80VYP-169">
          <mxGeometry x="63" width="150" height="44" as="geometry">
            <mxRectangle width="150" height="44" as="alternateBounds" />
          </mxGeometry>
        </mxCell>
        <mxCell id="F-UGYxU97noiECE80VYP-172" value="FK" style="shape=partialRectangle;connectable=0;fillColor=none;top=0;left=0;bottom=0;right=0;align=left;spacingLeft=2;overflow=hidden;fontSize=13;fontFamily=Times New Roman;strokeColor=#A680B8;" vertex="1" parent="F-UGYxU97noiECE80VYP-169">
          <mxGeometry x="213" width="42" height="44" as="geometry">
            <mxRectangle width="42" height="44" as="alternateBounds" />
          </mxGeometry>
        </mxCell>
        <mxCell id="F-UGYxU97noiECE80VYP-173" style="shape=tableRow;horizontal=0;startSize=0;swimlaneHead=0;swimlaneBody=0;fillColor=#e1d5e7;collapsible=0;dropTarget=0;points=[[0,0.5],[1,0.5]];portConstraint=eastwest;top=0;left=0;right=0;bottom=0;fontFamily=Times New Roman;fontSize=13;strokeColor=#9673a6;opacity=70;" vertex="1" parent="F-UGYxU97noiECE80VYP-136">
          <mxGeometry y="421" width="255" height="44" as="geometry" />
        </mxCell>
        <mxCell id="F-UGYxU97noiECE80VYP-174" value="datetime" style="shape=partialRectangle;connectable=0;fillColor=none;top=0;left=0;bottom=0;right=0;align=left;spacingLeft=2;overflow=hidden;fontSize=13;fontFamily=Times New Roman;strokeColor=#A680B8;" vertex="1" parent="F-UGYxU97noiECE80VYP-173">
          <mxGeometry width="63" height="44" as="geometry">
            <mxRectangle width="63" height="44" as="alternateBounds" />
          </mxGeometry>
        </mxCell>
        <mxCell id="F-UGYxU97noiECE80VYP-175" value="created_at" style="shape=partialRectangle;connectable=0;fillColor=none;top=0;left=0;bottom=0;right=0;align=left;spacingLeft=2;overflow=hidden;fontSize=13;fontFamily=Times New Roman;strokeColor=#A680B8;" vertex="1" parent="F-UGYxU97noiECE80VYP-173">
          <mxGeometry x="63" width="150" height="44" as="geometry">
            <mxRectangle width="150" height="44" as="alternateBounds" />
          </mxGeometry>
        </mxCell>
        <mxCell id="F-UGYxU97noiECE80VYP-176" value="" style="shape=partialRectangle;connectable=0;fillColor=none;top=0;left=0;bottom=0;right=0;align=left;spacingLeft=2;overflow=hidden;fontSize=13;fontFamily=Times New Roman;strokeColor=#A680B8;" vertex="1" parent="F-UGYxU97noiECE80VYP-173">
          <mxGeometry x="213" width="42" height="44" as="geometry">
            <mxRectangle width="42" height="44" as="alternateBounds" />
          </mxGeometry>
        </mxCell>
        <mxCell id="F-UGYxU97noiECE80VYP-177" style="shape=tableRow;horizontal=0;startSize=0;swimlaneHead=0;swimlaneBody=0;fillColor=none;collapsible=0;dropTarget=0;points=[[0,0.5],[1,0.5]];portConstraint=eastwest;top=0;left=0;right=0;bottom=0;fontFamily=Times New Roman;fontSize=13;strokeColor=#A680B8;" vertex="1" parent="F-UGYxU97noiECE80VYP-136">
          <mxGeometry y="465" width="255" height="44" as="geometry" />
        </mxCell>
        <mxCell id="F-UGYxU97noiECE80VYP-178" value="datetime" style="shape=partialRectangle;connectable=0;fillColor=none;top=0;left=0;bottom=0;right=0;align=left;spacingLeft=2;overflow=hidden;fontSize=13;fontFamily=Times New Roman;strokeColor=#A680B8;" vertex="1" parent="F-UGYxU97noiECE80VYP-177">
          <mxGeometry width="63" height="44" as="geometry">
            <mxRectangle width="63" height="44" as="alternateBounds" />
          </mxGeometry>
        </mxCell>
        <mxCell id="F-UGYxU97noiECE80VYP-179" value="updated_at" style="shape=partialRectangle;connectable=0;fillColor=none;top=0;left=0;bottom=0;right=0;align=left;spacingLeft=2;overflow=hidden;fontSize=13;fontFamily=Times New Roman;strokeColor=#A680B8;" vertex="1" parent="F-UGYxU97noiECE80VYP-177">
          <mxGeometry x="63" width="150" height="44" as="geometry">
            <mxRectangle width="150" height="44" as="alternateBounds" />
          </mxGeometry>
        </mxCell>
        <mxCell id="F-UGYxU97noiECE80VYP-180" value="" style="shape=partialRectangle;connectable=0;fillColor=none;top=0;left=0;bottom=0;right=0;align=left;spacingLeft=2;overflow=hidden;fontSize=13;fontFamily=Times New Roman;strokeColor=#A680B8;" vertex="1" parent="F-UGYxU97noiECE80VYP-177">
          <mxGeometry x="213" width="42" height="44" as="geometry">
            <mxRectangle width="42" height="44" as="alternateBounds" />
          </mxGeometry>
        </mxCell>
        <mxCell id="F-UGYxU97noiECE80VYP-181" value="FUNCTION_CATEGORY" style="shape=table;startSize=25;container=1;collapsible=0;childLayout=tableLayout;fixedRows=1;rowLines=1;fontStyle=1;align=center;resizeLast=1;fontFamily=Times New Roman;fontSize=13;strokeColor=#9673a6;fillColor=#e1d5e7;opacity=70;fontColor=#684E75;" vertex="1" parent="1">
          <mxGeometry x="1214" y="486" width="268" height="475" as="geometry" />
        </mxCell>
        <mxCell id="F-UGYxU97noiECE80VYP-182" style="shape=tableRow;horizontal=0;startSize=0;swimlaneHead=0;swimlaneBody=0;fillColor=none;collapsible=0;dropTarget=0;points=[[0,0.5],[1,0.5]];portConstraint=eastwest;top=0;left=0;right=0;bottom=0;fontFamily=Times New Roman;fontSize=13;strokeColor=#A680B8;" vertex="1" parent="F-UGYxU97noiECE80VYP-181">
          <mxGeometry y="25" width="268" height="45" as="geometry" />
        </mxCell>
        <mxCell id="F-UGYxU97noiECE80VYP-183" value="int" style="shape=partialRectangle;connectable=0;fillColor=none;top=0;left=0;bottom=0;right=0;align=left;spacingLeft=2;overflow=hidden;fontSize=13;fontFamily=Times New Roman;strokeColor=#A680B8;" vertex="1" parent="F-UGYxU97noiECE80VYP-182">
          <mxGeometry width="66" height="45" as="geometry">
            <mxRectangle width="66" height="45" as="alternateBounds" />
          </mxGeometry>
        </mxCell>
        <mxCell id="F-UGYxU97noiECE80VYP-184" value="category_id" style="shape=partialRectangle;connectable=0;fillColor=none;top=0;left=0;bottom=0;right=0;align=left;spacingLeft=2;overflow=hidden;fontSize=13;fontFamily=Times New Roman;strokeColor=#A680B8;" vertex="1" parent="F-UGYxU97noiECE80VYP-182">
          <mxGeometry x="66" width="150" height="45" as="geometry">
            <mxRectangle width="150" height="45" as="alternateBounds" />
          </mxGeometry>
        </mxCell>
        <mxCell id="F-UGYxU97noiECE80VYP-185" value="PK" style="shape=partialRectangle;connectable=0;fillColor=none;top=0;left=0;bottom=0;right=0;align=left;spacingLeft=2;overflow=hidden;fontSize=13;fontFamily=Times New Roman;strokeColor=#A680B8;" vertex="1" parent="F-UGYxU97noiECE80VYP-182">
          <mxGeometry x="216" width="52" height="45" as="geometry">
            <mxRectangle width="52" height="45" as="alternateBounds" />
          </mxGeometry>
        </mxCell>
        <mxCell id="F-UGYxU97noiECE80VYP-186" style="shape=tableRow;horizontal=0;startSize=0;swimlaneHead=0;swimlaneBody=0;fillColor=#e1d5e7;collapsible=0;dropTarget=0;points=[[0,0.5],[1,0.5]];portConstraint=eastwest;top=0;left=0;right=0;bottom=0;fontFamily=Times New Roman;fontSize=13;strokeColor=#9673a6;opacity=70;" vertex="1" parent="F-UGYxU97noiECE80VYP-181">
          <mxGeometry y="70" width="268" height="45" as="geometry" />
        </mxCell>
        <mxCell id="F-UGYxU97noiECE80VYP-187" value="int" style="shape=partialRectangle;connectable=0;fillColor=none;top=0;left=0;bottom=0;right=0;align=left;spacingLeft=2;overflow=hidden;fontSize=13;fontFamily=Times New Roman;strokeColor=#A680B8;" vertex="1" parent="F-UGYxU97noiECE80VYP-186">
          <mxGeometry width="66" height="45" as="geometry">
            <mxRectangle width="66" height="45" as="alternateBounds" />
          </mxGeometry>
        </mxCell>
        <mxCell id="F-UGYxU97noiECE80VYP-188" value="system_id" style="shape=partialRectangle;connectable=0;fillColor=none;top=0;left=0;bottom=0;right=0;align=left;spacingLeft=2;overflow=hidden;fontSize=13;fontFamily=Times New Roman;strokeColor=#A680B8;" vertex="1" parent="F-UGYxU97noiECE80VYP-186">
          <mxGeometry x="66" width="150" height="45" as="geometry">
            <mxRectangle width="150" height="45" as="alternateBounds" />
          </mxGeometry>
        </mxCell>
        <mxCell id="F-UGYxU97noiECE80VYP-189" value="FK" style="shape=partialRectangle;connectable=0;fillColor=none;top=0;left=0;bottom=0;right=0;align=left;spacingLeft=2;overflow=hidden;fontSize=13;fontFamily=Times New Roman;strokeColor=#A680B8;" vertex="1" parent="F-UGYxU97noiECE80VYP-186">
          <mxGeometry x="216" width="52" height="45" as="geometry">
            <mxRectangle width="52" height="45" as="alternateBounds" />
          </mxGeometry>
        </mxCell>
        <mxCell id="F-UGYxU97noiECE80VYP-190" style="shape=tableRow;horizontal=0;startSize=0;swimlaneHead=0;swimlaneBody=0;fillColor=none;collapsible=0;dropTarget=0;points=[[0,0.5],[1,0.5]];portConstraint=eastwest;top=0;left=0;right=0;bottom=0;fontFamily=Times New Roman;fontSize=13;strokeColor=#A680B8;" vertex="1" parent="F-UGYxU97noiECE80VYP-181">
          <mxGeometry y="115" width="268" height="45" as="geometry" />
        </mxCell>
        <mxCell id="F-UGYxU97noiECE80VYP-191" value="string" style="shape=partialRectangle;connectable=0;fillColor=none;top=0;left=0;bottom=0;right=0;align=left;spacingLeft=2;overflow=hidden;fontSize=13;fontFamily=Times New Roman;strokeColor=#A680B8;" vertex="1" parent="F-UGYxU97noiECE80VYP-190">
          <mxGeometry width="66" height="45" as="geometry">
            <mxRectangle width="66" height="45" as="alternateBounds" />
          </mxGeometry>
        </mxCell>
        <mxCell id="F-UGYxU97noiECE80VYP-192" value="category_code" style="shape=partialRectangle;connectable=0;fillColor=none;top=0;left=0;bottom=0;right=0;align=left;spacingLeft=2;overflow=hidden;fontSize=13;fontFamily=Times New Roman;strokeColor=#A680B8;" vertex="1" parent="F-UGYxU97noiECE80VYP-190">
          <mxGeometry x="66" width="150" height="45" as="geometry">
            <mxRectangle width="150" height="45" as="alternateBounds" />
          </mxGeometry>
        </mxCell>
        <mxCell id="F-UGYxU97noiECE80VYP-193" value="" style="shape=partialRectangle;connectable=0;fillColor=none;top=0;left=0;bottom=0;right=0;align=left;spacingLeft=2;overflow=hidden;fontSize=13;fontFamily=Times New Roman;strokeColor=#A680B8;" vertex="1" parent="F-UGYxU97noiECE80VYP-190">
          <mxGeometry x="216" width="52" height="45" as="geometry">
            <mxRectangle width="52" height="45" as="alternateBounds" />
          </mxGeometry>
        </mxCell>
        <mxCell id="F-UGYxU97noiECE80VYP-194" style="shape=tableRow;horizontal=0;startSize=0;swimlaneHead=0;swimlaneBody=0;fillColor=#e1d5e7;collapsible=0;dropTarget=0;points=[[0,0.5],[1,0.5]];portConstraint=eastwest;top=0;left=0;right=0;bottom=0;fontFamily=Times New Roman;fontSize=13;strokeColor=#9673a6;opacity=70;" vertex="1" parent="F-UGYxU97noiECE80VYP-181">
          <mxGeometry y="160" width="268" height="45" as="geometry" />
        </mxCell>
        <mxCell id="F-UGYxU97noiECE80VYP-195" value="string" style="shape=partialRectangle;connectable=0;fillColor=none;top=0;left=0;bottom=0;right=0;align=left;spacingLeft=2;overflow=hidden;fontSize=13;fontFamily=Times New Roman;strokeColor=#A680B8;" vertex="1" parent="F-UGYxU97noiECE80VYP-194">
          <mxGeometry width="66" height="45" as="geometry">
            <mxRectangle width="66" height="45" as="alternateBounds" />
          </mxGeometry>
        </mxCell>
        <mxCell id="F-UGYxU97noiECE80VYP-196" value="category_name" style="shape=partialRectangle;connectable=0;fillColor=none;top=0;left=0;bottom=0;right=0;align=left;spacingLeft=2;overflow=hidden;fontSize=13;fontFamily=Times New Roman;strokeColor=#A680B8;" vertex="1" parent="F-UGYxU97noiECE80VYP-194">
          <mxGeometry x="66" width="150" height="45" as="geometry">
            <mxRectangle width="150" height="45" as="alternateBounds" />
          </mxGeometry>
        </mxCell>
        <mxCell id="F-UGYxU97noiECE80VYP-197" value="" style="shape=partialRectangle;connectable=0;fillColor=none;top=0;left=0;bottom=0;right=0;align=left;spacingLeft=2;overflow=hidden;fontSize=13;fontFamily=Times New Roman;strokeColor=#A680B8;" vertex="1" parent="F-UGYxU97noiECE80VYP-194">
          <mxGeometry x="216" width="52" height="45" as="geometry">
            <mxRectangle width="52" height="45" as="alternateBounds" />
          </mxGeometry>
        </mxCell>
        <mxCell id="F-UGYxU97noiECE80VYP-198" style="shape=tableRow;horizontal=0;startSize=0;swimlaneHead=0;swimlaneBody=0;fillColor=none;collapsible=0;dropTarget=0;points=[[0,0.5],[1,0.5]];portConstraint=eastwest;top=0;left=0;right=0;bottom=0;fontFamily=Times New Roman;fontSize=13;strokeColor=#A680B8;" vertex="1" parent="F-UGYxU97noiECE80VYP-181">
          <mxGeometry y="205" width="268" height="45" as="geometry" />
        </mxCell>
        <mxCell id="F-UGYxU97noiECE80VYP-199" value="text" style="shape=partialRectangle;connectable=0;fillColor=none;top=0;left=0;bottom=0;right=0;align=left;spacingLeft=2;overflow=hidden;fontSize=13;fontFamily=Times New Roman;strokeColor=#A680B8;" vertex="1" parent="F-UGYxU97noiECE80VYP-198">
          <mxGeometry width="66" height="45" as="geometry">
            <mxRectangle width="66" height="45" as="alternateBounds" />
          </mxGeometry>
        </mxCell>
        <mxCell id="F-UGYxU97noiECE80VYP-200" value="description" style="shape=partialRectangle;connectable=0;fillColor=none;top=0;left=0;bottom=0;right=0;align=left;spacingLeft=2;overflow=hidden;fontSize=13;fontFamily=Times New Roman;strokeColor=#A680B8;" vertex="1" parent="F-UGYxU97noiECE80VYP-198">
          <mxGeometry x="66" width="150" height="45" as="geometry">
            <mxRectangle width="150" height="45" as="alternateBounds" />
          </mxGeometry>
        </mxCell>
        <mxCell id="F-UGYxU97noiECE80VYP-201" value="" style="shape=partialRectangle;connectable=0;fillColor=none;top=0;left=0;bottom=0;right=0;align=left;spacingLeft=2;overflow=hidden;fontSize=13;fontFamily=Times New Roman;strokeColor=#A680B8;" vertex="1" parent="F-UGYxU97noiECE80VYP-198">
          <mxGeometry x="216" width="52" height="45" as="geometry">
            <mxRectangle width="52" height="45" as="alternateBounds" />
          </mxGeometry>
        </mxCell>
        <mxCell id="F-UGYxU97noiECE80VYP-202" style="shape=tableRow;horizontal=0;startSize=0;swimlaneHead=0;swimlaneBody=0;fillColor=#e1d5e7;collapsible=0;dropTarget=0;points=[[0,0.5],[1,0.5]];portConstraint=eastwest;top=0;left=0;right=0;bottom=0;fontFamily=Times New Roman;fontSize=13;strokeColor=#9673a6;opacity=70;" vertex="1" parent="F-UGYxU97noiECE80VYP-181">
          <mxGeometry y="250" width="268" height="45" as="geometry" />
        </mxCell>
        <mxCell id="F-UGYxU97noiECE80VYP-203" value="boolean" style="shape=partialRectangle;connectable=0;fillColor=none;top=0;left=0;bottom=0;right=0;align=left;spacingLeft=2;overflow=hidden;fontSize=13;fontFamily=Times New Roman;strokeColor=#A680B8;" vertex="1" parent="F-UGYxU97noiECE80VYP-202">
          <mxGeometry width="66" height="45" as="geometry">
            <mxRectangle width="66" height="45" as="alternateBounds" />
          </mxGeometry>
        </mxCell>
        <mxCell id="F-UGYxU97noiECE80VYP-204" value="is_active" style="shape=partialRectangle;connectable=0;fillColor=none;top=0;left=0;bottom=0;right=0;align=left;spacingLeft=2;overflow=hidden;fontSize=13;fontFamily=Times New Roman;strokeColor=#A680B8;" vertex="1" parent="F-UGYxU97noiECE80VYP-202">
          <mxGeometry x="66" width="150" height="45" as="geometry">
            <mxRectangle width="150" height="45" as="alternateBounds" />
          </mxGeometry>
        </mxCell>
        <mxCell id="F-UGYxU97noiECE80VYP-205" value="" style="shape=partialRectangle;connectable=0;fillColor=none;top=0;left=0;bottom=0;right=0;align=left;spacingLeft=2;overflow=hidden;fontSize=13;fontFamily=Times New Roman;strokeColor=#A680B8;" vertex="1" parent="F-UGYxU97noiECE80VYP-202">
          <mxGeometry x="216" width="52" height="45" as="geometry">
            <mxRectangle width="52" height="45" as="alternateBounds" />
          </mxGeometry>
        </mxCell>
        <mxCell id="F-UGYxU97noiECE80VYP-206" style="shape=tableRow;horizontal=0;startSize=0;swimlaneHead=0;swimlaneBody=0;fillColor=none;collapsible=0;dropTarget=0;points=[[0,0.5],[1,0.5]];portConstraint=eastwest;top=0;left=0;right=0;bottom=0;fontFamily=Times New Roman;fontSize=13;strokeColor=#A680B8;" vertex="1" parent="F-UGYxU97noiECE80VYP-181">
          <mxGeometry y="295" width="268" height="45" as="geometry" />
        </mxCell>
        <mxCell id="F-UGYxU97noiECE80VYP-207" value="int" style="shape=partialRectangle;connectable=0;fillColor=none;top=0;left=0;bottom=0;right=0;align=left;spacingLeft=2;overflow=hidden;fontSize=13;fontFamily=Times New Roman;strokeColor=#A680B8;" vertex="1" parent="F-UGYxU97noiECE80VYP-206">
          <mxGeometry width="66" height="45" as="geometry">
            <mxRectangle width="66" height="45" as="alternateBounds" />
          </mxGeometry>
        </mxCell>
        <mxCell id="F-UGYxU97noiECE80VYP-208" value="created_by" style="shape=partialRectangle;connectable=0;fillColor=none;top=0;left=0;bottom=0;right=0;align=left;spacingLeft=2;overflow=hidden;fontSize=13;fontFamily=Times New Roman;strokeColor=#A680B8;" vertex="1" parent="F-UGYxU97noiECE80VYP-206">
          <mxGeometry x="66" width="150" height="45" as="geometry">
            <mxRectangle width="150" height="45" as="alternateBounds" />
          </mxGeometry>
        </mxCell>
        <mxCell id="F-UGYxU97noiECE80VYP-209" value="FK" style="shape=partialRectangle;connectable=0;fillColor=none;top=0;left=0;bottom=0;right=0;align=left;spacingLeft=2;overflow=hidden;fontSize=13;fontFamily=Times New Roman;strokeColor=#A680B8;" vertex="1" parent="F-UGYxU97noiECE80VYP-206">
          <mxGeometry x="216" width="52" height="45" as="geometry">
            <mxRectangle width="52" height="45" as="alternateBounds" />
          </mxGeometry>
        </mxCell>
        <mxCell id="F-UGYxU97noiECE80VYP-210" style="shape=tableRow;horizontal=0;startSize=0;swimlaneHead=0;swimlaneBody=0;fillColor=#e1d5e7;collapsible=0;dropTarget=0;points=[[0,0.5],[1,0.5]];portConstraint=eastwest;top=0;left=0;right=0;bottom=0;fontFamily=Times New Roman;fontSize=13;strokeColor=#9673a6;opacity=70;" vertex="1" parent="F-UGYxU97noiECE80VYP-181">
          <mxGeometry y="340" width="268" height="45" as="geometry" />
        </mxCell>
        <mxCell id="F-UGYxU97noiECE80VYP-211" value="int" style="shape=partialRectangle;connectable=0;fillColor=none;top=0;left=0;bottom=0;right=0;align=left;spacingLeft=2;overflow=hidden;fontSize=13;fontFamily=Times New Roman;strokeColor=#A680B8;" vertex="1" parent="F-UGYxU97noiECE80VYP-210">
          <mxGeometry width="66" height="45" as="geometry">
            <mxRectangle width="66" height="45" as="alternateBounds" />
          </mxGeometry>
        </mxCell>
        <mxCell id="F-UGYxU97noiECE80VYP-212" value="updated_by" style="shape=partialRectangle;connectable=0;fillColor=none;top=0;left=0;bottom=0;right=0;align=left;spacingLeft=2;overflow=hidden;fontSize=13;fontFamily=Times New Roman;strokeColor=#A680B8;" vertex="1" parent="F-UGYxU97noiECE80VYP-210">
          <mxGeometry x="66" width="150" height="45" as="geometry">
            <mxRectangle width="150" height="45" as="alternateBounds" />
          </mxGeometry>
        </mxCell>
        <mxCell id="F-UGYxU97noiECE80VYP-213" value="FK" style="shape=partialRectangle;connectable=0;fillColor=none;top=0;left=0;bottom=0;right=0;align=left;spacingLeft=2;overflow=hidden;fontSize=13;fontFamily=Times New Roman;strokeColor=#A680B8;" vertex="1" parent="F-UGYxU97noiECE80VYP-210">
          <mxGeometry x="216" width="52" height="45" as="geometry">
            <mxRectangle width="52" height="45" as="alternateBounds" />
          </mxGeometry>
        </mxCell>
        <mxCell id="F-UGYxU97noiECE80VYP-214" style="shape=tableRow;horizontal=0;startSize=0;swimlaneHead=0;swimlaneBody=0;fillColor=none;collapsible=0;dropTarget=0;points=[[0,0.5],[1,0.5]];portConstraint=eastwest;top=0;left=0;right=0;bottom=0;fontFamily=Times New Roman;fontSize=13;strokeColor=#A680B8;" vertex="1" parent="F-UGYxU97noiECE80VYP-181">
          <mxGeometry y="385" width="268" height="45" as="geometry" />
        </mxCell>
        <mxCell id="F-UGYxU97noiECE80VYP-215" value="datetime" style="shape=partialRectangle;connectable=0;fillColor=none;top=0;left=0;bottom=0;right=0;align=left;spacingLeft=2;overflow=hidden;fontSize=13;fontFamily=Times New Roman;strokeColor=#A680B8;" vertex="1" parent="F-UGYxU97noiECE80VYP-214">
          <mxGeometry width="66" height="45" as="geometry">
            <mxRectangle width="66" height="45" as="alternateBounds" />
          </mxGeometry>
        </mxCell>
        <mxCell id="F-UGYxU97noiECE80VYP-216" value="created_at" style="shape=partialRectangle;connectable=0;fillColor=none;top=0;left=0;bottom=0;right=0;align=left;spacingLeft=2;overflow=hidden;fontSize=13;fontFamily=Times New Roman;strokeColor=#A680B8;" vertex="1" parent="F-UGYxU97noiECE80VYP-214">
          <mxGeometry x="66" width="150" height="45" as="geometry">
            <mxRectangle width="150" height="45" as="alternateBounds" />
          </mxGeometry>
        </mxCell>
        <mxCell id="F-UGYxU97noiECE80VYP-217" value="" style="shape=partialRectangle;connectable=0;fillColor=none;top=0;left=0;bottom=0;right=0;align=left;spacingLeft=2;overflow=hidden;fontSize=13;fontFamily=Times New Roman;strokeColor=#A680B8;" vertex="1" parent="F-UGYxU97noiECE80VYP-214">
          <mxGeometry x="216" width="52" height="45" as="geometry">
            <mxRectangle width="52" height="45" as="alternateBounds" />
          </mxGeometry>
        </mxCell>
        <mxCell id="F-UGYxU97noiECE80VYP-218" style="shape=tableRow;horizontal=0;startSize=0;swimlaneHead=0;swimlaneBody=0;fillColor=#e1d5e7;collapsible=0;dropTarget=0;points=[[0,0.5],[1,0.5]];portConstraint=eastwest;top=0;left=0;right=0;bottom=0;fontFamily=Times New Roman;fontSize=13;strokeColor=#9673a6;opacity=70;" vertex="1" parent="F-UGYxU97noiECE80VYP-181">
          <mxGeometry y="430" width="268" height="45" as="geometry" />
        </mxCell>
        <mxCell id="F-UGYxU97noiECE80VYP-219" value="datetime" style="shape=partialRectangle;connectable=0;fillColor=none;top=0;left=0;bottom=0;right=0;align=left;spacingLeft=2;overflow=hidden;fontSize=13;fontFamily=Times New Roman;strokeColor=#A680B8;" vertex="1" parent="F-UGYxU97noiECE80VYP-218">
          <mxGeometry width="66" height="45" as="geometry">
            <mxRectangle width="66" height="45" as="alternateBounds" />
          </mxGeometry>
        </mxCell>
        <mxCell id="F-UGYxU97noiECE80VYP-220" value="updated_at" style="shape=partialRectangle;connectable=0;fillColor=none;top=0;left=0;bottom=0;right=0;align=left;spacingLeft=2;overflow=hidden;fontSize=13;fontFamily=Times New Roman;strokeColor=#A680B8;" vertex="1" parent="F-UGYxU97noiECE80VYP-218">
          <mxGeometry x="66" width="150" height="45" as="geometry">
            <mxRectangle width="150" height="45" as="alternateBounds" />
          </mxGeometry>
        </mxCell>
        <mxCell id="F-UGYxU97noiECE80VYP-221" value="" style="shape=partialRectangle;connectable=0;fillColor=none;top=0;left=0;bottom=0;right=0;align=left;spacingLeft=2;overflow=hidden;fontSize=13;fontFamily=Times New Roman;strokeColor=#A680B8;" vertex="1" parent="F-UGYxU97noiECE80VYP-218">
          <mxGeometry x="216" width="52" height="45" as="geometry">
            <mxRectangle width="52" height="45" as="alternateBounds" />
          </mxGeometry>
        </mxCell>
        <mxCell id="F-UGYxU97noiECE80VYP-222" value="API_COMPONENT" style="shape=table;startSize=25;container=1;collapsible=0;childLayout=tableLayout;fixedRows=1;rowLines=1;fontStyle=1;align=center;resizeLast=1;fontFamily=Times New Roman;fontSize=13;strokeColor=#9673a6;fillColor=#e1d5e7;fontColor=#684E75;" vertex="1" parent="1">
          <mxGeometry x="1010" y="1090" width="292" height="729" as="geometry" />
        </mxCell>
        <mxCell id="F-UGYxU97noiECE80VYP-223" style="shape=tableRow;horizontal=0;startSize=0;swimlaneHead=0;swimlaneBody=0;fillColor=none;collapsible=0;dropTarget=0;points=[[0,0.5],[1,0.5]];portConstraint=eastwest;top=0;left=0;right=0;bottom=0;fontFamily=Times New Roman;fontSize=13;strokeColor=#A680B8;" vertex="1" parent="F-UGYxU97noiECE80VYP-222">
          <mxGeometry y="25" width="292" height="44" as="geometry" />
        </mxCell>
        <mxCell id="F-UGYxU97noiECE80VYP-224" value="int" style="shape=partialRectangle;connectable=0;fillColor=none;top=0;left=0;bottom=0;right=0;align=left;spacingLeft=2;overflow=hidden;fontSize=13;fontFamily=Times New Roman;strokeColor=#A680B8;" vertex="1" parent="F-UGYxU97noiECE80VYP-223">
          <mxGeometry width="60" height="44" as="geometry">
            <mxRectangle width="60" height="44" as="alternateBounds" />
          </mxGeometry>
        </mxCell>
        <mxCell id="F-UGYxU97noiECE80VYP-225" value="api_id" style="shape=partialRectangle;connectable=0;fillColor=none;top=0;left=0;bottom=0;right=0;align=left;spacingLeft=2;overflow=hidden;fontSize=13;fontFamily=Times New Roman;strokeColor=#A680B8;" vertex="1" parent="F-UGYxU97noiECE80VYP-223">
          <mxGeometry x="60" width="180" height="44" as="geometry">
            <mxRectangle width="180" height="44" as="alternateBounds" />
          </mxGeometry>
        </mxCell>
        <mxCell id="F-UGYxU97noiECE80VYP-226" value="PK" style="shape=partialRectangle;connectable=0;fillColor=none;top=0;left=0;bottom=0;right=0;align=left;spacingLeft=2;overflow=hidden;fontSize=13;fontFamily=Times New Roman;strokeColor=#A680B8;" vertex="1" parent="F-UGYxU97noiECE80VYP-223">
          <mxGeometry x="240" width="52" height="44" as="geometry">
            <mxRectangle width="52" height="44" as="alternateBounds" />
          </mxGeometry>
        </mxCell>
        <mxCell id="F-UGYxU97noiECE80VYP-227" style="shape=tableRow;horizontal=0;startSize=0;swimlaneHead=0;swimlaneBody=0;fillColor=#e1d5e7;collapsible=0;dropTarget=0;points=[[0,0.5],[1,0.5]];portConstraint=eastwest;top=0;left=0;right=0;bottom=0;fontFamily=Times New Roman;fontSize=13;strokeColor=#9673a6;opacity=70;" vertex="1" parent="F-UGYxU97noiECE80VYP-222">
          <mxGeometry y="69" width="292" height="44" as="geometry" />
        </mxCell>
        <mxCell id="F-UGYxU97noiECE80VYP-228" value="int" style="shape=partialRectangle;connectable=0;fillColor=none;top=0;left=0;bottom=0;right=0;align=left;spacingLeft=2;overflow=hidden;fontSize=13;fontFamily=Times New Roman;strokeColor=#A680B8;" vertex="1" parent="F-UGYxU97noiECE80VYP-227">
          <mxGeometry width="60" height="44" as="geometry">
            <mxRectangle width="60" height="44" as="alternateBounds" />
          </mxGeometry>
        </mxCell>
        <mxCell id="F-UGYxU97noiECE80VYP-229" value="system_id" style="shape=partialRectangle;connectable=0;fillColor=none;top=0;left=0;bottom=0;right=0;align=left;spacingLeft=2;overflow=hidden;fontSize=13;fontFamily=Times New Roman;strokeColor=#A680B8;" vertex="1" parent="F-UGYxU97noiECE80VYP-227">
          <mxGeometry x="60" width="180" height="44" as="geometry">
            <mxRectangle width="180" height="44" as="alternateBounds" />
          </mxGeometry>
        </mxCell>
        <mxCell id="F-UGYxU97noiECE80VYP-230" value="FK" style="shape=partialRectangle;connectable=0;fillColor=none;top=0;left=0;bottom=0;right=0;align=left;spacingLeft=2;overflow=hidden;fontSize=13;fontFamily=Times New Roman;strokeColor=#A680B8;" vertex="1" parent="F-UGYxU97noiECE80VYP-227">
          <mxGeometry x="240" width="52" height="44" as="geometry">
            <mxRectangle width="52" height="44" as="alternateBounds" />
          </mxGeometry>
        </mxCell>
        <mxCell id="F-UGYxU97noiECE80VYP-231" style="shape=tableRow;horizontal=0;startSize=0;swimlaneHead=0;swimlaneBody=0;fillColor=none;collapsible=0;dropTarget=0;points=[[0,0.5],[1,0.5]];portConstraint=eastwest;top=0;left=0;right=0;bottom=0;fontFamily=Times New Roman;fontSize=13;strokeColor=#A680B8;" vertex="1" parent="F-UGYxU97noiECE80VYP-222">
          <mxGeometry y="113" width="292" height="44" as="geometry" />
        </mxCell>
        <mxCell id="F-UGYxU97noiECE80VYP-232" value="int" style="shape=partialRectangle;connectable=0;fillColor=none;top=0;left=0;bottom=0;right=0;align=left;spacingLeft=2;overflow=hidden;fontSize=13;fontFamily=Times New Roman;strokeColor=#A680B8;" vertex="1" parent="F-UGYxU97noiECE80VYP-231">
          <mxGeometry width="60" height="44" as="geometry">
            <mxRectangle width="60" height="44" as="alternateBounds" />
          </mxGeometry>
        </mxCell>
        <mxCell id="F-UGYxU97noiECE80VYP-233" value="category_id" style="shape=partialRectangle;connectable=0;fillColor=none;top=0;left=0;bottom=0;right=0;align=left;spacingLeft=2;overflow=hidden;fontSize=13;fontFamily=Times New Roman;strokeColor=#A680B8;" vertex="1" parent="F-UGYxU97noiECE80VYP-231">
          <mxGeometry x="60" width="180" height="44" as="geometry">
            <mxRectangle width="180" height="44" as="alternateBounds" />
          </mxGeometry>
        </mxCell>
        <mxCell id="F-UGYxU97noiECE80VYP-234" value="FK" style="shape=partialRectangle;connectable=0;fillColor=none;top=0;left=0;bottom=0;right=0;align=left;spacingLeft=2;overflow=hidden;fontSize=13;fontFamily=Times New Roman;strokeColor=#A680B8;" vertex="1" parent="F-UGYxU97noiECE80VYP-231">
          <mxGeometry x="240" width="52" height="44" as="geometry">
            <mxRectangle width="52" height="44" as="alternateBounds" />
          </mxGeometry>
        </mxCell>
        <mxCell id="F-UGYxU97noiECE80VYP-235" style="shape=tableRow;horizontal=0;startSize=0;swimlaneHead=0;swimlaneBody=0;fillColor=#e1d5e7;collapsible=0;dropTarget=0;points=[[0,0.5],[1,0.5]];portConstraint=eastwest;top=0;left=0;right=0;bottom=0;fontFamily=Times New Roman;fontSize=13;strokeColor=#9673a6;opacity=70;" vertex="1" parent="F-UGYxU97noiECE80VYP-222">
          <mxGeometry y="157" width="292" height="44" as="geometry" />
        </mxCell>
        <mxCell id="F-UGYxU97noiECE80VYP-236" value="string" style="shape=partialRectangle;connectable=0;fillColor=none;top=0;left=0;bottom=0;right=0;align=left;spacingLeft=2;overflow=hidden;fontSize=13;fontFamily=Times New Roman;strokeColor=#A680B8;" vertex="1" parent="F-UGYxU97noiECE80VYP-235">
          <mxGeometry width="60" height="44" as="geometry">
            <mxRectangle width="60" height="44" as="alternateBounds" />
          </mxGeometry>
        </mxCell>
        <mxCell id="F-UGYxU97noiECE80VYP-237" value="name" style="shape=partialRectangle;connectable=0;fillColor=none;top=0;left=0;bottom=0;right=0;align=left;spacingLeft=2;overflow=hidden;fontSize=13;fontFamily=Times New Roman;strokeColor=#A680B8;" vertex="1" parent="F-UGYxU97noiECE80VYP-235">
          <mxGeometry x="60" width="180" height="44" as="geometry">
            <mxRectangle width="180" height="44" as="alternateBounds" />
          </mxGeometry>
        </mxCell>
        <mxCell id="F-UGYxU97noiECE80VYP-238" value="" style="shape=partialRectangle;connectable=0;fillColor=none;top=0;left=0;bottom=0;right=0;align=left;spacingLeft=2;overflow=hidden;fontSize=13;fontFamily=Times New Roman;strokeColor=#A680B8;" vertex="1" parent="F-UGYxU97noiECE80VYP-235">
          <mxGeometry x="240" width="52" height="44" as="geometry">
            <mxRectangle width="52" height="44" as="alternateBounds" />
          </mxGeometry>
        </mxCell>
        <mxCell id="F-UGYxU97noiECE80VYP-239" style="shape=tableRow;horizontal=0;startSize=0;swimlaneHead=0;swimlaneBody=0;fillColor=none;collapsible=0;dropTarget=0;points=[[0,0.5],[1,0.5]];portConstraint=eastwest;top=0;left=0;right=0;bottom=0;fontFamily=Times New Roman;fontSize=13;strokeColor=#A680B8;" vertex="1" parent="F-UGYxU97noiECE80VYP-222">
          <mxGeometry y="201" width="292" height="44" as="geometry" />
        </mxCell>
        <mxCell id="F-UGYxU97noiECE80VYP-240" value="string" style="shape=partialRectangle;connectable=0;fillColor=none;top=0;left=0;bottom=0;right=0;align=left;spacingLeft=2;overflow=hidden;fontSize=13;fontFamily=Times New Roman;strokeColor=#A680B8;" vertex="1" parent="F-UGYxU97noiECE80VYP-239">
          <mxGeometry width="60" height="44" as="geometry">
            <mxRectangle width="60" height="44" as="alternateBounds" />
          </mxGeometry>
        </mxCell>
        <mxCell id="F-UGYxU97noiECE80VYP-241" value="version" style="shape=partialRectangle;connectable=0;fillColor=none;top=0;left=0;bottom=0;right=0;align=left;spacingLeft=2;overflow=hidden;fontSize=13;fontFamily=Times New Roman;strokeColor=#A680B8;" vertex="1" parent="F-UGYxU97noiECE80VYP-239">
          <mxGeometry x="60" width="180" height="44" as="geometry">
            <mxRectangle width="180" height="44" as="alternateBounds" />
          </mxGeometry>
        </mxCell>
        <mxCell id="F-UGYxU97noiECE80VYP-242" value="" style="shape=partialRectangle;connectable=0;fillColor=none;top=0;left=0;bottom=0;right=0;align=left;spacingLeft=2;overflow=hidden;fontSize=13;fontFamily=Times New Roman;strokeColor=#A680B8;" vertex="1" parent="F-UGYxU97noiECE80VYP-239">
          <mxGeometry x="240" width="52" height="44" as="geometry">
            <mxRectangle width="52" height="44" as="alternateBounds" />
          </mxGeometry>
        </mxCell>
        <mxCell id="F-UGYxU97noiECE80VYP-243" style="shape=tableRow;horizontal=0;startSize=0;swimlaneHead=0;swimlaneBody=0;fillColor=#e1d5e7;collapsible=0;dropTarget=0;points=[[0,0.5],[1,0.5]];portConstraint=eastwest;top=0;left=0;right=0;bottom=0;fontFamily=Times New Roman;fontSize=13;strokeColor=#9673a6;opacity=70;" vertex="1" parent="F-UGYxU97noiECE80VYP-222">
          <mxGeometry y="245" width="292" height="44" as="geometry" />
        </mxCell>
        <mxCell id="F-UGYxU97noiECE80VYP-244" value="text" style="shape=partialRectangle;connectable=0;fillColor=none;top=0;left=0;bottom=0;right=0;align=left;spacingLeft=2;overflow=hidden;fontSize=13;fontFamily=Times New Roman;strokeColor=#A680B8;" vertex="1" parent="F-UGYxU97noiECE80VYP-243">
          <mxGeometry width="60" height="44" as="geometry">
            <mxRectangle width="60" height="44" as="alternateBounds" />
          </mxGeometry>
        </mxCell>
        <mxCell id="F-UGYxU97noiECE80VYP-245" value="description" style="shape=partialRectangle;connectable=0;fillColor=none;top=0;left=0;bottom=0;right=0;align=left;spacingLeft=2;overflow=hidden;fontSize=13;fontFamily=Times New Roman;strokeColor=#A680B8;" vertex="1" parent="F-UGYxU97noiECE80VYP-243">
          <mxGeometry x="60" width="180" height="44" as="geometry">
            <mxRectangle width="180" height="44" as="alternateBounds" />
          </mxGeometry>
        </mxCell>
        <mxCell id="F-UGYxU97noiECE80VYP-246" value="" style="shape=partialRectangle;connectable=0;fillColor=none;top=0;left=0;bottom=0;right=0;align=left;spacingLeft=2;overflow=hidden;fontSize=13;fontFamily=Times New Roman;strokeColor=#A680B8;" vertex="1" parent="F-UGYxU97noiECE80VYP-243">
          <mxGeometry x="240" width="52" height="44" as="geometry">
            <mxRectangle width="52" height="44" as="alternateBounds" />
          </mxGeometry>
        </mxCell>
        <mxCell id="F-UGYxU97noiECE80VYP-247" style="shape=tableRow;horizontal=0;startSize=0;swimlaneHead=0;swimlaneBody=0;fillColor=none;collapsible=0;dropTarget=0;points=[[0,0.5],[1,0.5]];portConstraint=eastwest;top=0;left=0;right=0;bottom=0;fontFamily=Times New Roman;fontSize=13;strokeColor=#A680B8;" vertex="1" parent="F-UGYxU97noiECE80VYP-222">
          <mxGeometry y="289" width="292" height="44" as="geometry" />
        </mxCell>
        <mxCell id="F-UGYxU97noiECE80VYP-248" value="string" style="shape=partialRectangle;connectable=0;fillColor=none;top=0;left=0;bottom=0;right=0;align=left;spacingLeft=2;overflow=hidden;fontSize=13;fontFamily=Times New Roman;strokeColor=#A680B8;" vertex="1" parent="F-UGYxU97noiECE80VYP-247">
          <mxGeometry width="60" height="44" as="geometry">
            <mxRectangle width="60" height="44" as="alternateBounds" />
          </mxGeometry>
        </mxCell>
        <mxCell id="F-UGYxU97noiECE80VYP-249" value="developer" style="shape=partialRectangle;connectable=0;fillColor=none;top=0;left=0;bottom=0;right=0;align=left;spacingLeft=2;overflow=hidden;fontSize=13;fontFamily=Times New Roman;strokeColor=#A680B8;" vertex="1" parent="F-UGYxU97noiECE80VYP-247">
          <mxGeometry x="60" width="180" height="44" as="geometry">
            <mxRectangle width="180" height="44" as="alternateBounds" />
          </mxGeometry>
        </mxCell>
        <mxCell id="F-UGYxU97noiECE80VYP-250" value="" style="shape=partialRectangle;connectable=0;fillColor=none;top=0;left=0;bottom=0;right=0;align=left;spacingLeft=2;overflow=hidden;fontSize=13;fontFamily=Times New Roman;strokeColor=#A680B8;" vertex="1" parent="F-UGYxU97noiECE80VYP-247">
          <mxGeometry x="240" width="52" height="44" as="geometry">
            <mxRectangle width="52" height="44" as="alternateBounds" />
          </mxGeometry>
        </mxCell>
        <mxCell id="F-UGYxU97noiECE80VYP-251" style="shape=tableRow;horizontal=0;startSize=0;swimlaneHead=0;swimlaneBody=0;fillColor=#e1d5e7;collapsible=0;dropTarget=0;points=[[0,0.5],[1,0.5]];portConstraint=eastwest;top=0;left=0;right=0;bottom=0;fontFamily=Times New Roman;fontSize=13;strokeColor=#9673a6;opacity=70;" vertex="1" parent="F-UGYxU97noiECE80VYP-222">
          <mxGeometry y="333" width="292" height="44" as="geometry" />
        </mxCell>
        <mxCell id="F-UGYxU97noiECE80VYP-252" value="string" style="shape=partialRectangle;connectable=0;fillColor=none;top=0;left=0;bottom=0;right=0;align=left;spacingLeft=2;overflow=hidden;fontSize=13;fontFamily=Times New Roman;strokeColor=#A680B8;" vertex="1" parent="F-UGYxU97noiECE80VYP-251">
          <mxGeometry width="60" height="44" as="geometry">
            <mxRectangle width="60" height="44" as="alternateBounds" />
          </mxGeometry>
        </mxCell>
        <mxCell id="F-UGYxU97noiECE80VYP-253" value="endpoint_path" style="shape=partialRectangle;connectable=0;fillColor=none;top=0;left=0;bottom=0;right=0;align=left;spacingLeft=2;overflow=hidden;fontSize=13;fontFamily=Times New Roman;strokeColor=#A680B8;" vertex="1" parent="F-UGYxU97noiECE80VYP-251">
          <mxGeometry x="60" width="180" height="44" as="geometry">
            <mxRectangle width="180" height="44" as="alternateBounds" />
          </mxGeometry>
        </mxCell>
        <mxCell id="F-UGYxU97noiECE80VYP-254" value="" style="shape=partialRectangle;connectable=0;fillColor=none;top=0;left=0;bottom=0;right=0;align=left;spacingLeft=2;overflow=hidden;fontSize=13;fontFamily=Times New Roman;strokeColor=#A680B8;" vertex="1" parent="F-UGYxU97noiECE80VYP-251">
          <mxGeometry x="240" width="52" height="44" as="geometry">
            <mxRectangle width="52" height="44" as="alternateBounds" />
          </mxGeometry>
        </mxCell>
        <mxCell id="F-UGYxU97noiECE80VYP-255" style="shape=tableRow;horizontal=0;startSize=0;swimlaneHead=0;swimlaneBody=0;fillColor=none;collapsible=0;dropTarget=0;points=[[0,0.5],[1,0.5]];portConstraint=eastwest;top=0;left=0;right=0;bottom=0;fontFamily=Times New Roman;fontSize=13;strokeColor=#A680B8;" vertex="1" parent="F-UGYxU97noiECE80VYP-222">
          <mxGeometry y="377" width="292" height="44" as="geometry" />
        </mxCell>
        <mxCell id="F-UGYxU97noiECE80VYP-256" value="text" style="shape=partialRectangle;connectable=0;fillColor=none;top=0;left=0;bottom=0;right=0;align=left;spacingLeft=2;overflow=hidden;fontSize=13;fontFamily=Times New Roman;strokeColor=#A680B8;" vertex="1" parent="F-UGYxU97noiECE80VYP-255">
          <mxGeometry width="60" height="44" as="geometry">
            <mxRectangle width="60" height="44" as="alternateBounds" />
          </mxGeometry>
        </mxCell>
        <mxCell id="F-UGYxU97noiECE80VYP-257" value="parameters" style="shape=partialRectangle;connectable=0;fillColor=none;top=0;left=0;bottom=0;right=0;align=left;spacingLeft=2;overflow=hidden;fontSize=13;fontFamily=Times New Roman;strokeColor=#A680B8;" vertex="1" parent="F-UGYxU97noiECE80VYP-255">
          <mxGeometry x="60" width="180" height="44" as="geometry">
            <mxRectangle width="180" height="44" as="alternateBounds" />
          </mxGeometry>
        </mxCell>
        <mxCell id="F-UGYxU97noiECE80VYP-258" value="" style="shape=partialRectangle;connectable=0;fillColor=none;top=0;left=0;bottom=0;right=0;align=left;spacingLeft=2;overflow=hidden;fontSize=13;fontFamily=Times New Roman;strokeColor=#A680B8;" vertex="1" parent="F-UGYxU97noiECE80VYP-255">
          <mxGeometry x="240" width="52" height="44" as="geometry">
            <mxRectangle width="52" height="44" as="alternateBounds" />
          </mxGeometry>
        </mxCell>
        <mxCell id="F-UGYxU97noiECE80VYP-259" style="shape=tableRow;horizontal=0;startSize=0;swimlaneHead=0;swimlaneBody=0;fillColor=#e1d5e7;collapsible=0;dropTarget=0;points=[[0,0.5],[1,0.5]];portConstraint=eastwest;top=0;left=0;right=0;bottom=0;fontFamily=Times New Roman;fontSize=13;strokeColor=#9673a6;opacity=70;" vertex="1" parent="F-UGYxU97noiECE80VYP-222">
          <mxGeometry y="421" width="292" height="44" as="geometry" />
        </mxCell>
        <mxCell id="F-UGYxU97noiECE80VYP-260" value="text" style="shape=partialRectangle;connectable=0;fillColor=none;top=0;left=0;bottom=0;right=0;align=left;spacingLeft=2;overflow=hidden;fontSize=13;fontFamily=Times New Roman;strokeColor=#A680B8;" vertex="1" parent="F-UGYxU97noiECE80VYP-259">
          <mxGeometry width="60" height="44" as="geometry">
            <mxRectangle width="60" height="44" as="alternateBounds" />
          </mxGeometry>
        </mxCell>
        <mxCell id="F-UGYxU97noiECE80VYP-261" value="return_description" style="shape=partialRectangle;connectable=0;fillColor=none;top=0;left=0;bottom=0;right=0;align=left;spacingLeft=2;overflow=hidden;fontSize=13;fontFamily=Times New Roman;strokeColor=#A680B8;" vertex="1" parent="F-UGYxU97noiECE80VYP-259">
          <mxGeometry x="60" width="180" height="44" as="geometry">
            <mxRectangle width="180" height="44" as="alternateBounds" />
          </mxGeometry>
        </mxCell>
        <mxCell id="F-UGYxU97noiECE80VYP-262" value="" style="shape=partialRectangle;connectable=0;fillColor=none;top=0;left=0;bottom=0;right=0;align=left;spacingLeft=2;overflow=hidden;fontSize=13;fontFamily=Times New Roman;strokeColor=#A680B8;" vertex="1" parent="F-UGYxU97noiECE80VYP-259">
          <mxGeometry x="240" width="52" height="44" as="geometry">
            <mxRectangle width="52" height="44" as="alternateBounds" />
          </mxGeometry>
        </mxCell>
        <mxCell id="F-UGYxU97noiECE80VYP-263" style="shape=tableRow;horizontal=0;startSize=0;swimlaneHead=0;swimlaneBody=0;fillColor=none;collapsible=0;dropTarget=0;points=[[0,0.5],[1,0.5]];portConstraint=eastwest;top=0;left=0;right=0;bottom=0;fontFamily=Times New Roman;fontSize=13;strokeColor=#A680B8;" vertex="1" parent="F-UGYxU97noiECE80VYP-222">
          <mxGeometry y="465" width="292" height="44" as="geometry" />
        </mxCell>
        <mxCell id="F-UGYxU97noiECE80VYP-264" value="text" style="shape=partialRectangle;connectable=0;fillColor=none;top=0;left=0;bottom=0;right=0;align=left;spacingLeft=2;overflow=hidden;fontSize=13;fontFamily=Times New Roman;strokeColor=#A680B8;" vertex="1" parent="F-UGYxU97noiECE80VYP-263">
          <mxGeometry width="60" height="44" as="geometry">
            <mxRectangle width="60" height="44" as="alternateBounds" />
          </mxGeometry>
        </mxCell>
        <mxCell id="F-UGYxU97noiECE80VYP-265" value="dependencies" style="shape=partialRectangle;connectable=0;fillColor=none;top=0;left=0;bottom=0;right=0;align=left;spacingLeft=2;overflow=hidden;fontSize=13;fontFamily=Times New Roman;strokeColor=#A680B8;" vertex="1" parent="F-UGYxU97noiECE80VYP-263">
          <mxGeometry x="60" width="180" height="44" as="geometry">
            <mxRectangle width="180" height="44" as="alternateBounds" />
          </mxGeometry>
        </mxCell>
        <mxCell id="F-UGYxU97noiECE80VYP-266" value="" style="shape=partialRectangle;connectable=0;fillColor=none;top=0;left=0;bottom=0;right=0;align=left;spacingLeft=2;overflow=hidden;fontSize=13;fontFamily=Times New Roman;strokeColor=#A680B8;" vertex="1" parent="F-UGYxU97noiECE80VYP-263">
          <mxGeometry x="240" width="52" height="44" as="geometry">
            <mxRectangle width="52" height="44" as="alternateBounds" />
          </mxGeometry>
        </mxCell>
        <mxCell id="F-UGYxU97noiECE80VYP-267" style="shape=tableRow;horizontal=0;startSize=0;swimlaneHead=0;swimlaneBody=0;fillColor=#e1d5e7;collapsible=0;dropTarget=0;points=[[0,0.5],[1,0.5]];portConstraint=eastwest;top=0;left=0;right=0;bottom=0;fontFamily=Times New Roman;fontSize=13;strokeColor=#9673a6;opacity=70;" vertex="1" parent="F-UGYxU97noiECE80VYP-222">
          <mxGeometry y="509" width="292" height="44" as="geometry" />
        </mxCell>
        <mxCell id="F-UGYxU97noiECE80VYP-268" value="boolean" style="shape=partialRectangle;connectable=0;fillColor=none;top=0;left=0;bottom=0;right=0;align=left;spacingLeft=2;overflow=hidden;fontSize=13;fontFamily=Times New Roman;strokeColor=#A680B8;" vertex="1" parent="F-UGYxU97noiECE80VYP-267">
          <mxGeometry width="60" height="44" as="geometry">
            <mxRectangle width="60" height="44" as="alternateBounds" />
          </mxGeometry>
        </mxCell>
        <mxCell id="F-UGYxU97noiECE80VYP-269" value="is_active" style="shape=partialRectangle;connectable=0;fillColor=none;top=0;left=0;bottom=0;right=0;align=left;spacingLeft=2;overflow=hidden;fontSize=13;fontFamily=Times New Roman;strokeColor=#A680B8;" vertex="1" parent="F-UGYxU97noiECE80VYP-267">
          <mxGeometry x="60" width="180" height="44" as="geometry">
            <mxRectangle width="180" height="44" as="alternateBounds" />
          </mxGeometry>
        </mxCell>
        <mxCell id="F-UGYxU97noiECE80VYP-270" value="" style="shape=partialRectangle;connectable=0;fillColor=none;top=0;left=0;bottom=0;right=0;align=left;spacingLeft=2;overflow=hidden;fontSize=13;fontFamily=Times New Roman;strokeColor=#A680B8;" vertex="1" parent="F-UGYxU97noiECE80VYP-267">
          <mxGeometry x="240" width="52" height="44" as="geometry">
            <mxRectangle width="52" height="44" as="alternateBounds" />
          </mxGeometry>
        </mxCell>
        <mxCell id="F-UGYxU97noiECE80VYP-271" style="shape=tableRow;horizontal=0;startSize=0;swimlaneHead=0;swimlaneBody=0;fillColor=none;collapsible=0;dropTarget=0;points=[[0,0.5],[1,0.5]];portConstraint=eastwest;top=0;left=0;right=0;bottom=0;fontFamily=Times New Roman;fontSize=13;strokeColor=#A680B8;" vertex="1" parent="F-UGYxU97noiECE80VYP-222">
          <mxGeometry y="553" width="292" height="44" as="geometry" />
        </mxCell>
        <mxCell id="F-UGYxU97noiECE80VYP-272" value="int" style="shape=partialRectangle;connectable=0;fillColor=none;top=0;left=0;bottom=0;right=0;align=left;spacingLeft=2;overflow=hidden;fontSize=13;fontFamily=Times New Roman;strokeColor=#A680B8;" vertex="1" parent="F-UGYxU97noiECE80VYP-271">
          <mxGeometry width="60" height="44" as="geometry">
            <mxRectangle width="60" height="44" as="alternateBounds" />
          </mxGeometry>
        </mxCell>
        <mxCell id="F-UGYxU97noiECE80VYP-273" value="created_by" style="shape=partialRectangle;connectable=0;fillColor=none;top=0;left=0;bottom=0;right=0;align=left;spacingLeft=2;overflow=hidden;fontSize=13;fontFamily=Times New Roman;strokeColor=#A680B8;" vertex="1" parent="F-UGYxU97noiECE80VYP-271">
          <mxGeometry x="60" width="180" height="44" as="geometry">
            <mxRectangle width="180" height="44" as="alternateBounds" />
          </mxGeometry>
        </mxCell>
        <mxCell id="F-UGYxU97noiECE80VYP-274" value="FK" style="shape=partialRectangle;connectable=0;fillColor=none;top=0;left=0;bottom=0;right=0;align=left;spacingLeft=2;overflow=hidden;fontSize=13;fontFamily=Times New Roman;strokeColor=#A680B8;" vertex="1" parent="F-UGYxU97noiECE80VYP-271">
          <mxGeometry x="240" width="52" height="44" as="geometry">
            <mxRectangle width="52" height="44" as="alternateBounds" />
          </mxGeometry>
        </mxCell>
        <mxCell id="F-UGYxU97noiECE80VYP-275" style="shape=tableRow;horizontal=0;startSize=0;swimlaneHead=0;swimlaneBody=0;fillColor=#e1d5e7;collapsible=0;dropTarget=0;points=[[0,0.5],[1,0.5]];portConstraint=eastwest;top=0;left=0;right=0;bottom=0;fontFamily=Times New Roman;fontSize=13;strokeColor=#9673a6;opacity=70;" vertex="1" parent="F-UGYxU97noiECE80VYP-222">
          <mxGeometry y="597" width="292" height="44" as="geometry" />
        </mxCell>
        <mxCell id="F-UGYxU97noiECE80VYP-276" value="int" style="shape=partialRectangle;connectable=0;fillColor=none;top=0;left=0;bottom=0;right=0;align=left;spacingLeft=2;overflow=hidden;fontSize=13;fontFamily=Times New Roman;strokeColor=#A680B8;" vertex="1" parent="F-UGYxU97noiECE80VYP-275">
          <mxGeometry width="60" height="44" as="geometry">
            <mxRectangle width="60" height="44" as="alternateBounds" />
          </mxGeometry>
        </mxCell>
        <mxCell id="F-UGYxU97noiECE80VYP-277" value="updated_by" style="shape=partialRectangle;connectable=0;fillColor=none;top=0;left=0;bottom=0;right=0;align=left;spacingLeft=2;overflow=hidden;fontSize=13;fontFamily=Times New Roman;strokeColor=#A680B8;" vertex="1" parent="F-UGYxU97noiECE80VYP-275">
          <mxGeometry x="60" width="180" height="44" as="geometry">
            <mxRectangle width="180" height="44" as="alternateBounds" />
          </mxGeometry>
        </mxCell>
        <mxCell id="F-UGYxU97noiECE80VYP-278" value="FK" style="shape=partialRectangle;connectable=0;fillColor=none;top=0;left=0;bottom=0;right=0;align=left;spacingLeft=2;overflow=hidden;fontSize=13;fontFamily=Times New Roman;strokeColor=#A680B8;" vertex="1" parent="F-UGYxU97noiECE80VYP-275">
          <mxGeometry x="240" width="52" height="44" as="geometry">
            <mxRectangle width="52" height="44" as="alternateBounds" />
          </mxGeometry>
        </mxCell>
        <mxCell id="F-UGYxU97noiECE80VYP-279" style="shape=tableRow;horizontal=0;startSize=0;swimlaneHead=0;swimlaneBody=0;fillColor=none;collapsible=0;dropTarget=0;points=[[0,0.5],[1,0.5]];portConstraint=eastwest;top=0;left=0;right=0;bottom=0;fontFamily=Times New Roman;fontSize=13;strokeColor=#A680B8;" vertex="1" parent="F-UGYxU97noiECE80VYP-222">
          <mxGeometry y="641" width="292" height="44" as="geometry" />
        </mxCell>
        <mxCell id="F-UGYxU97noiECE80VYP-280" value="datetime" style="shape=partialRectangle;connectable=0;fillColor=none;top=0;left=0;bottom=0;right=0;align=left;spacingLeft=2;overflow=hidden;fontSize=13;fontFamily=Times New Roman;strokeColor=#A680B8;" vertex="1" parent="F-UGYxU97noiECE80VYP-279">
          <mxGeometry width="60" height="44" as="geometry">
            <mxRectangle width="60" height="44" as="alternateBounds" />
          </mxGeometry>
        </mxCell>
        <mxCell id="F-UGYxU97noiECE80VYP-281" value="created_at" style="shape=partialRectangle;connectable=0;fillColor=none;top=0;left=0;bottom=0;right=0;align=left;spacingLeft=2;overflow=hidden;fontSize=13;fontFamily=Times New Roman;strokeColor=#A680B8;" vertex="1" parent="F-UGYxU97noiECE80VYP-279">
          <mxGeometry x="60" width="180" height="44" as="geometry">
            <mxRectangle width="180" height="44" as="alternateBounds" />
          </mxGeometry>
        </mxCell>
        <mxCell id="F-UGYxU97noiECE80VYP-282" value="" style="shape=partialRectangle;connectable=0;fillColor=none;top=0;left=0;bottom=0;right=0;align=left;spacingLeft=2;overflow=hidden;fontSize=13;fontFamily=Times New Roman;strokeColor=#A680B8;" vertex="1" parent="F-UGYxU97noiECE80VYP-279">
          <mxGeometry x="240" width="52" height="44" as="geometry">
            <mxRectangle width="52" height="44" as="alternateBounds" />
          </mxGeometry>
        </mxCell>
        <mxCell id="F-UGYxU97noiECE80VYP-283" style="shape=tableRow;horizontal=0;startSize=0;swimlaneHead=0;swimlaneBody=0;fillColor=#e1d5e7;collapsible=0;dropTarget=0;points=[[0,0.5],[1,0.5]];portConstraint=eastwest;top=0;left=0;right=0;bottom=0;fontFamily=Times New Roman;fontSize=13;strokeColor=#9673a6;opacity=70;" vertex="1" parent="F-UGYxU97noiECE80VYP-222">
          <mxGeometry y="685" width="292" height="44" as="geometry" />
        </mxCell>
        <mxCell id="F-UGYxU97noiECE80VYP-284" value="datetime" style="shape=partialRectangle;connectable=0;fillColor=none;top=0;left=0;bottom=0;right=0;align=left;spacingLeft=2;overflow=hidden;fontSize=13;fontFamily=Times New Roman;strokeColor=#A680B8;" vertex="1" parent="F-UGYxU97noiECE80VYP-283">
          <mxGeometry width="60" height="44" as="geometry">
            <mxRectangle width="60" height="44" as="alternateBounds" />
          </mxGeometry>
        </mxCell>
        <mxCell id="F-UGYxU97noiECE80VYP-285" value="updated_at" style="shape=partialRectangle;connectable=0;fillColor=none;top=0;left=0;bottom=0;right=0;align=left;spacingLeft=2;overflow=hidden;fontSize=13;fontFamily=Times New Roman;strokeColor=#A680B8;" vertex="1" parent="F-UGYxU97noiECE80VYP-283">
          <mxGeometry x="60" width="180" height="44" as="geometry">
            <mxRectangle width="180" height="44" as="alternateBounds" />
          </mxGeometry>
        </mxCell>
        <mxCell id="F-UGYxU97noiECE80VYP-286" value="" style="shape=partialRectangle;connectable=0;fillColor=none;top=0;left=0;bottom=0;right=0;align=left;spacingLeft=2;overflow=hidden;fontSize=13;fontFamily=Times New Roman;strokeColor=#A680B8;" vertex="1" parent="F-UGYxU97noiECE80VYP-283">
          <mxGeometry x="240" width="52" height="44" as="geometry">
            <mxRectangle width="52" height="44" as="alternateBounds" />
          </mxGeometry>
        </mxCell>
        <mxCell id="F-UGYxU97noiECE80VYP-287" value="creates" style="curved=1;startArrow=ERmandOne;startSize=10;;endArrow=ERzeroToMany;endSize=10;;exitX=0;exitY=0.65;entryX=0.5;entryY=0;rounded=0;fontFamily=Times New Roman;fontSize=13;strokeColor=#A680B8;" edge="1" parent="1" source="F-UGYxU97noiECE80VYP-1" target="F-UGYxU97noiECE80VYP-26">
          <mxGeometry relative="1" as="geometry">
            <Array as="points">
              <mxPoint x="240" y="400" />
            </Array>
          </mxGeometry>
        </mxCell>
        <mxCell id="F-UGYxU97noiECE80VYP-288" value="creates" style="curved=1;startArrow=ERmandOne;startSize=10;;endArrow=ERzeroToMany;endSize=10;;exitX=0;exitY=0.96;entryX=0.5;entryY=0;rounded=0;fontFamily=Times New Roman;fontSize=13;strokeColor=#A680B8;" edge="1" parent="1" source="F-UGYxU97noiECE80VYP-1" target="F-UGYxU97noiECE80VYP-79">
          <mxGeometry relative="1" as="geometry">
            <Array as="points">
              <mxPoint x="533" y="371" />
            </Array>
          </mxGeometry>
        </mxCell>
        <mxCell id="F-UGYxU97noiECE80VYP-289" value="creates" style="curved=1;startArrow=ERmandOne;startSize=10;;endArrow=ERzeroToMany;endSize=10;;exitX=1;exitY=0.96;entryX=0.5;entryY=0;rounded=0;fontFamily=Times New Roman;fontSize=13;strokeColor=#A680B8;" edge="1" parent="1" source="F-UGYxU97noiECE80VYP-1" target="F-UGYxU97noiECE80VYP-136">
          <mxGeometry relative="1" as="geometry">
            <Array as="points">
              <mxPoint x="924" y="371" />
            </Array>
          </mxGeometry>
        </mxCell>
        <mxCell id="F-UGYxU97noiECE80VYP-292" value="belongs_to" style="curved=1;startArrow=ERmandOne;startSize=10;;endArrow=ERzeroToMany;endSize=10;;exitX=0.5;exitY=1;entryX=0.25;entryY=0;rounded=0;exitDx=0;exitDy=0;entryDx=0;entryDy=0;fontFamily=Times New Roman;fontSize=13;strokeColor=#A680B8;" edge="1" parent="1" source="F-UGYxU97noiECE80VYP-136" target="F-UGYxU97noiECE80VYP-222">
          <mxGeometry x="0.0068" relative="1" as="geometry">
            <Array as="points">
              <mxPoint x="1000" y="1060" />
            </Array>
            <mxPoint x="440.5" y="1150" as="sourcePoint" />
            <mxPoint x="458.44000000000005" y="1889" as="targetPoint" />
            <mxPoint as="offset" />
          </mxGeometry>
        </mxCell>
        <mxCell id="F-UGYxU97noiECE80VYP-293" value="categorizes" style="curved=1;startArrow=ERmandOne;startSize=10;;endArrow=ERzeroToMany;endSize=10;;exitX=0.668;exitY=1.133;entryX=0.75;entryY=0;rounded=0;exitDx=0;exitDy=0;exitPerimeter=0;entryDx=0;entryDy=0;fontFamily=Times New Roman;fontSize=13;strokeColor=#A680B8;" edge="1" parent="1" source="F-UGYxU97noiECE80VYP-218" target="F-UGYxU97noiECE80VYP-222">
          <mxGeometry relative="1" as="geometry">
            <Array as="points">
              <mxPoint x="1340" y="1060" />
            </Array>
            <mxPoint x="1629.04" y="1080" as="sourcePoint" />
            <mxPoint x="1460" y="1857" as="targetPoint" />
          </mxGeometry>
        </mxCell>
        <mxCell id="F-UGYxU97noiECE80VYP-295" value="creates" style="curved=1;startArrow=ERmandOne;startSize=10;;endArrow=ERzeroToMany;endSize=10;;exitX=1;exitY=0.5;entryX=0.5;entryY=0;rounded=0;entryDx=0;entryDy=0;exitDx=0;exitDy=0;fontFamily=Times New Roman;fontSize=13;strokeColor=#A680B8;" edge="1" parent="1" source="F-UGYxU97noiECE80VYP-14" target="F-UGYxU97noiECE80VYP-181">
          <mxGeometry relative="1" as="geometry">
            <Array as="points">
              <mxPoint x="1170" y="330" />
            </Array>
            <mxPoint x="1050" y="320" as="sourcePoint" />
            <mxPoint x="1114" y="497" as="targetPoint" />
          </mxGeometry>
        </mxCell>
        <mxCell id="F-UGYxU97noiECE80VYP-296" value="contains" style="curved=1;startArrow=ERmandOne;startSize=10;;endArrow=ERzeroToMany;endSize=10;;exitX=1;exitY=0.5;entryX=0;entryY=0.5;rounded=0;exitDx=0;exitDy=0;entryDx=0;entryDy=0;fontFamily=Times New Roman;fontSize=13;strokeColor=#A680B8;" edge="1" parent="1" source="F-UGYxU97noiECE80VYP-161" target="F-UGYxU97noiECE80VYP-206">
          <mxGeometry relative="1" as="geometry">
            <Array as="points" />
            <mxPoint x="1130" y="870" as="sourcePoint" />
            <mxPoint x="1194" y="1047" as="targetPoint" />
          </mxGeometry>
        </mxCell>
      </root>
    </mxGraphModel>
  </diagram>
</mxfile>
